<svg width="130" height="130" viewBox="0 0 130 130" fill="none" xmlns="http://www.w3.org/2000/svg">
<path d="M66.9033 7.69621C69.9375 3.40254 74.2313 1.41271 78.9726 1.05824C83.7436 0.701564 88.9647 2.00693 93.7086 4.33468C98.4513 6.66184 102.636 9.97152 105.351 13.5268C108.082 17.1037 109.208 20.7594 108.237 23.8867C108.013 24.6086 108.188 25.3454 108.552 25.8883C108.918 26.4332 109.548 26.8873 110.342 26.9089C118.16 27.1209 124.113 34.1767 127.055 42.5681C128.51 46.7196 129.176 51.0796 128.96 54.8539C128.742 58.6579 127.641 61.7034 125.743 63.4347C124.842 64.2567 124.716 65.7396 125.57 66.6824C127.346 68.6436 128.46 71.6915 128.776 75.3306C129.09 78.954 128.604 83.07 127.279 87.0621C124.626 95.0575 118.685 102.375 109.355 104.375C108.17 104.629 107.491 105.832 107.751 106.944C108.627 110.694 107.336 114.329 104.554 117.597C101.765 120.874 97.5341 123.702 92.773 125.726C88.0172 127.748 82.8038 128.938 78.1003 128.998C73.3753 129.058 69.3048 127.979 66.67 125.63C65.8422 124.891 64.5906 124.908 63.7715 125.613C61.5629 127.512 57.9315 128.5 53.5473 128.522C49.194 128.544 44.2496 127.612 39.5768 125.842C30.1404 122.269 22.2755 115.497 22.0273 106.807C21.9923 105.581 20.9129 104.645 19.7163 104.734C16.1443 105.002 12.7961 103.526 9.94101 100.88C7.08076 98.2291 4.76447 94.4416 3.31709 90.2409C0.39803 81.7691 1.13673 72.0948 7.33866 66.8723C8.47059 65.9191 8.30304 64.1044 7.10454 63.3237C4.09149 61.3611 2.242 58.0495 1.44823 54.0769C0.65441 50.104 0.937379 45.5503 2.11993 41.2715C3.30314 36.9902 5.3663 33.0579 8.05943 30.2935C10.7423 27.5397 14.0049 25.9817 17.6671 26.2785C18.6482 26.3581 19.4479 25.7276 19.8969 25.1365C20.3504 24.5395 20.7214 23.6272 20.4704 22.7323C19.6238 19.715 20.8295 16.2105 23.6474 12.7961C26.4461 9.4049 30.7092 6.27268 35.553 4.09764C45.3143 -0.285531 56.8704 -0.588782 63.4866 7.78958C64.3598 8.89532 66.0947 8.8405 66.9033 7.69621Z" fill="#3D6C94" fill-opacity="0.7" stroke="#3D6C94" stroke-width="2"/>
</svg>
