<svg width="134" height="134" viewBox="0 0 134 134" fill="none" xmlns="http://www.w3.org/2000/svg">
<path d="M42.9154 11.3915C37.3472 9.0701 31.0712 9.92068 26.4007 12.7954C21.7179 15.6776 18.5344 20.6821 19.426 26.6809C19.4304 26.7105 19.4232 26.7498 19.3931 26.7879C19.3634 26.8256 19.3303 26.8385 19.3058 26.8404C14.08 27.2515 10.4073 30.0334 8.49819 33.6812C6.60472 37.2991 6.45949 41.7418 8.18575 45.4915C8.19765 45.5173 8.20128 45.5492 8.19272 45.5826C8.18422 45.6158 8.16665 45.6395 8.14654 45.6542C4.51566 48.3124 2.15872 52.687 1.3323 56.9094C0.515816 61.081 1.13975 65.4696 3.99257 67.8802C4.04033 67.9206 4.07101 67.9742 4.08244 68.0216C4.09292 68.065 4.08426 68.0851 4.08064 68.092C-0.191763 76.2362 0.775019 85.6365 8.07267 89.8242C8.09617 89.8377 8.12255 89.8645 8.13824 89.9119C8.15435 89.9606 8.15203 90.0112 8.13554 90.0521C6.58014 93.9104 7.5126 98.7569 9.65165 102.49C11.7753 106.197 15.3483 109.224 19.4275 108.851C19.4992 108.844 19.5862 108.867 19.6581 108.922C19.7276 108.974 19.7476 109.027 19.7513 109.058C20.3139 113.799 23.4952 118.511 27.3975 121.563C31.2659 124.589 36.2085 126.243 40.2766 124.164C40.3307 124.136 40.4079 124.126 40.4872 124.148C40.5646 124.17 40.6049 124.211 40.6222 124.242C43.0151 128.57 48.1188 131.455 53.1989 132.527C58.2418 133.591 63.7233 132.953 66.7445 129.622C66.7799 129.583 66.8284 129.558 66.8749 129.55C66.9185 129.543 66.9433 129.552 66.9563 129.56C71.3452 132.296 76.9761 133.348 81.9292 132.52C86.8911 131.691 91.3327 128.931 92.9985 123.897C93.0085 123.867 93.0303 123.839 93.0626 123.821C93.0941 123.802 93.122 123.8 93.1432 123.805C98.5268 124.956 104.257 123.382 108.382 120.521C112.466 117.689 115.286 113.343 114.139 108.854C114.122 108.79 114.131 108.689 114.194 108.588C114.257 108.488 114.331 108.453 114.374 108.446C118.081 107.837 121.451 105.385 123.569 102.131C125.694 98.867 126.619 94.7009 125.286 90.6214C125.277 90.5938 125.266 90.5078 125.342 90.3725C125.42 90.2352 125.543 90.1322 125.654 90.0895C127.286 89.4605 128.675 88.088 129.749 86.4104C130.831 84.7197 131.647 82.6371 132.097 80.4469C132.988 76.1111 132.488 71.0677 129.362 67.7598C129.331 67.7279 129.312 67.6819 129.31 67.632C129.308 67.5838 129.323 67.5532 129.338 67.5355C132.095 64.354 133.431 60.1585 132.877 56.0859C132.319 51.9868 129.855 48.0905 125.175 45.5344C125.159 45.5258 125.142 45.5087 125.131 45.4755C125.12 45.441 125.122 45.4055 125.135 45.3763C126.81 41.6423 126.644 37.241 124.757 33.6549C122.854 30.0397 119.215 27.2802 114.046 26.8472C114.021 26.8451 113.983 26.8311 113.948 26.7839C113.911 26.7356 113.903 26.6844 113.909 26.6465C115.648 16.9222 105.215 7.10239 93.4438 11.28C93.4247 11.2868 93.3766 11.2942 93.305 11.2499C93.2304 11.2037 93.1887 11.1349 93.1784 11.0784C92.258 6.04849 87.4781 2.63105 82.2336 1.46105C76.9556 0.283588 70.7948 1.27229 66.7816 5.51466C66.7586 5.539 66.7164 5.56185 66.6556 5.56104C66.5949 5.56024 66.5542 5.53641 66.5325 5.51217C59.7535 -2.07128 47.2342 0.58627 43.0585 11.3337C43.0508 11.3536 43.0337 11.3749 43.0009 11.3888C42.9678 11.4028 42.938 11.4009 42.9154 11.3915Z" fill="#3D6C94" fill-opacity="0.7" stroke="#3D6C94" stroke-width="2"/>
</svg>
