<svg width="154" height="151" viewBox="0 0 154 151" fill="none" xmlns="http://www.w3.org/2000/svg">
<path d="M10.8522 12.563C10.7113 10.2901 11.9717 8.32899 13.9672 7.10963C15.9698 5.88593 18.6103 5.48509 20.99 6.30599C22.0531 6.67271 23.2579 6.1721 23.7312 5.13573C25.6946 0.836517 30.4904 -0.00708405 33.2304 2.53813C34.099 3.345 35.492 3.3624 36.3815 2.58249C38.0496 1.11992 40.5024 0.710935 42.7712 1.19039C45.064 1.6749 46.8665 2.99351 47.4391 4.62453C47.8198 5.70877 49.0629 6.6057 50.3633 6.25683C55.1468 4.97353 59.0773 8.77883 58.8091 12.4843C58.7256 13.637 59.5382 14.7819 60.7473 14.9789C64.5647 15.6008 66.1375 19.3263 65.056 22.3391C64.7114 23.2992 65.0475 24.445 65.9707 25.0141C69.55 27.2203 69.7406 31.2162 67.6841 33.9351C67.0268 34.804 67.1219 35.9868 67.7245 36.7756C68.6677 38.0101 68.9193 39.8629 68.5881 41.7079C68.2536 43.5714 67.382 45.1145 66.4594 45.763C66.0173 46.0736 65.6335 46.5238 65.3781 47.0182C65.1262 47.5058 64.9481 48.1394 65.0792 48.7939C65.6757 51.7724 63.5299 54.8538 60.8579 55.6596C60.2248 55.8506 59.7432 56.294 59.4357 56.775C59.1278 57.2568 58.9416 57.8561 58.9766 58.4628C59.0577 59.8704 58.0678 61.4611 56.2361 62.6697C54.4373 63.8567 52.0525 64.5061 49.8193 64.16C48.7747 63.9982 47.7863 64.609 47.3966 65.5319C46.6449 67.3123 44.9314 68.4072 42.772 68.7647C40.6089 69.1229 38.138 68.7059 36.1553 67.5964C35.2248 67.0757 34.1435 67.347 33.4704 67.9331C32.3213 68.9337 30.216 69.2627 27.9172 68.7848C25.6464 68.3126 23.5194 67.115 22.4103 65.5091C21.7467 64.5482 20.4797 64.2598 19.4944 64.5839C18.1366 65.0304 16.3155 64.5004 14.5996 63.1496C12.9101 61.8196 11.5744 59.8776 11.1735 57.9915C10.9216 56.8066 9.79917 56.0925 8.80042 56.0032C7.59546 55.8956 6.31035 54.8779 5.41232 53.2699C4.52554 51.682 4.18656 49.8055 4.60243 48.3611C4.87313 47.4208 4.54596 46.3211 3.67726 45.7318C1.14359 44.0131 0.520806 40.3779 2.2942 36.6783C2.75668 35.7135 2.38557 34.6883 1.83838 34.0775C1.08083 33.2318 0.784924 31.6507 1.164 29.7935C1.53548 27.9735 2.5123 26.1486 3.91843 24.9816C4.66626 24.3609 4.92219 23.3222 4.58424 22.4315C3.42948 19.3883 5.01903 15.5645 8.92613 14.9683C10.0951 14.7899 10.9234 13.7119 10.8522 12.563Z" fill="#AFDDF3" fill-opacity="0.75" stroke="#AFDDF3" stroke-width="2"/>
<path d="M94.8522 12.563C94.7113 10.2901 95.9717 8.32899 97.9672 7.10963C99.9698 5.88593 102.61 5.48509 104.99 6.30599C106.053 6.67271 107.258 6.1721 107.731 5.13573C109.695 0.836517 114.49 -0.00708405 117.23 2.53813C118.099 3.345 119.492 3.3624 120.381 2.58249C122.05 1.11992 124.502 0.710935 126.771 1.19039C129.064 1.6749 130.866 2.99351 131.439 4.62453C131.82 5.70877 133.063 6.6057 134.363 6.25683C139.147 4.97353 143.077 8.77883 142.809 12.4843C142.726 13.637 143.538 14.7819 144.747 14.9789C148.565 15.6008 150.138 19.3263 149.056 22.3391C148.711 23.2992 149.048 24.445 149.971 25.0141C153.55 27.2203 153.741 31.2162 151.684 33.9351C151.027 34.804 151.122 35.9868 151.725 36.7756C152.668 38.0101 152.919 39.8629 152.588 41.7079C152.254 43.5714 151.382 45.1145 150.459 45.763C150.017 46.0736 149.634 46.5238 149.378 47.0182C149.126 47.5058 148.948 48.1394 149.079 48.7939C149.676 51.7724 147.53 54.8538 144.858 55.6596C144.225 55.8506 143.743 56.294 143.436 56.775C143.128 57.2568 142.942 57.8561 142.977 58.4628C143.058 59.8704 142.068 61.4611 140.236 62.6697C138.437 63.8567 136.053 64.5061 133.819 64.16C132.775 63.9982 131.786 64.609 131.397 65.5319C130.645 67.3123 128.931 68.4072 126.772 68.7647C124.609 69.1229 122.138 68.7059 120.155 67.5964C119.225 67.0757 118.144 67.347 117.47 67.9331C116.321 68.9337 114.216 69.2627 111.917 68.7848C109.646 68.3126 107.519 67.115 106.41 65.5091C105.747 64.5482 104.48 64.2598 103.494 64.5839C102.137 65.0304 100.316 64.5004 98.5996 63.1496C96.9101 61.8196 95.5744 59.8776 95.1735 57.9915C94.9216 56.8066 93.7992 56.0925 92.8004 56.0032C91.5955 55.8956 90.3103 54.8779 89.4123 53.2699C88.5255 51.682 88.1866 49.8055 88.6024 48.3611C88.8731 47.4208 88.546 46.3211 87.6773 45.7318C85.1436 44.0131 84.5208 40.3779 86.2942 36.6783C86.7567 35.7135 86.3856 34.6883 85.8384 34.0775C85.0808 33.2318 84.7849 31.6507 85.164 29.7935C85.5355 27.9735 86.5123 26.1486 87.9184 24.9816C88.6663 24.3609 88.9222 23.3222 88.5842 22.4315C87.4295 19.3883 89.019 15.5645 92.9261 14.9683C94.0951 14.7899 94.9234 13.7119 94.8522 12.563Z" fill="#AFDDF3" fill-opacity="0.75" stroke="#AFDDF3" stroke-width="2"/>
<path d="M10.8522 93.563C10.7113 91.2901 11.9717 89.329 13.9672 88.1096C15.9698 86.8859 18.6103 86.4851 20.99 87.306C22.0531 87.6727 23.2579 87.1721 23.7312 86.1357C25.6946 81.8365 30.4904 80.9929 33.2304 83.5381C34.099 84.345 35.492 84.3624 36.3815 83.5825C38.0496 82.1199 40.5024 81.7109 42.7712 82.1904C45.064 82.6749 46.8665 83.9935 47.4391 85.6245C47.8198 86.7088 49.0629 87.6057 50.3633 87.2568C55.1468 85.9735 59.0773 89.7788 58.8091 93.4843C58.7256 94.637 59.5382 95.7819 60.7473 95.9789C64.5647 96.6008 66.1375 100.326 65.056 103.339C64.7114 104.299 65.0475 105.445 65.9707 106.014C69.55 108.22 69.7406 112.216 67.6841 114.935C67.0268 115.804 67.1219 116.987 67.7245 117.776C68.6677 119.01 68.9193 120.863 68.5881 122.708C68.2536 124.571 67.382 126.115 66.4594 126.763C66.0173 127.074 65.6335 127.524 65.3781 128.018C65.1262 128.506 64.9481 129.139 65.0792 129.794C65.6757 132.772 63.5299 135.854 60.8579 136.66C60.2248 136.851 59.7432 137.294 59.4357 137.775C59.1278 138.257 58.9416 138.856 58.9766 139.463C59.0577 140.87 58.0678 142.461 56.2361 143.67C54.4373 144.857 52.0525 145.506 49.8193 145.16C48.7747 144.998 47.7863 145.609 47.3966 146.532C46.6449 148.312 44.9314 149.407 42.772 149.765C40.6089 150.123 38.138 149.706 36.1553 148.596C35.2248 148.076 34.1435 148.347 33.4704 148.933C32.3213 149.934 30.216 150.263 27.9172 149.785C25.6464 149.313 23.5194 148.115 22.4103 146.509C21.7467 145.548 20.4797 145.26 19.4944 145.584C18.1366 146.03 16.3155 145.5 14.5996 144.15C12.9101 142.82 11.5744 140.878 11.1735 138.992C10.9216 137.807 9.79917 137.092 8.80042 137.003C7.59546 136.896 6.31035 135.878 5.41232 134.27C4.52554 132.682 4.18656 130.806 4.60243 129.361C4.87313 128.421 4.54596 127.321 3.67726 126.732C1.14359 125.013 0.520806 121.378 2.2942 117.678C2.75668 116.714 2.38557 115.688 1.83838 115.077C1.08083 114.232 0.784924 112.651 1.164 110.793C1.53548 108.973 2.5123 107.149 3.91843 105.982C4.66626 105.361 4.92219 104.322 4.58424 103.432C3.42948 100.388 5.01903 96.5645 8.92613 95.9683C10.0951 95.7899 10.9234 94.7119 10.8522 93.563Z" fill="#3D6C94" fill-opacity="0.7" stroke="#3D6C94" stroke-width="2"/>
</svg>
