<svg width="151" height="151" viewBox="0 0 151 151" fill="none" xmlns="http://www.w3.org/2000/svg">
<circle cx="35" cy="35" r="34" fill="#76A5C4" fill-opacity="0.7" stroke="#76A5C4" stroke-width="2"/>
<path d="M91.8522 12.563C91.7113 10.2901 92.9717 8.32899 94.9672 7.10963C96.9698 5.88593 99.6103 5.48509 101.99 6.30599C103.053 6.67271 104.258 6.1721 104.731 5.13573C106.695 0.836517 111.49 -0.00708405 114.23 2.53813C115.099 3.345 116.492 3.3624 117.381 2.58249C119.05 1.11992 121.502 0.710935 123.771 1.19039C126.064 1.6749 127.866 2.99351 128.439 4.62453C128.82 5.70877 130.063 6.6057 131.363 6.25683C136.147 4.97353 140.077 8.77883 139.809 12.4843C139.726 13.637 140.538 14.7819 141.747 14.9789C145.565 15.6008 147.138 19.3263 146.056 22.3391C145.711 23.2992 146.048 24.445 146.971 25.0141C150.55 27.2203 150.741 31.2162 148.684 33.9351C148.027 34.804 148.122 35.9868 148.725 36.7756C149.668 38.0101 149.919 39.8629 149.588 41.7079C149.254 43.5714 148.382 45.1145 147.459 45.763C147.017 46.0736 146.634 46.5238 146.378 47.0182C146.126 47.5058 145.948 48.1394 146.079 48.7939C146.676 51.7724 144.53 54.8538 141.858 55.6596C141.225 55.8506 140.743 56.294 140.436 56.775C140.128 57.2568 139.942 57.8561 139.977 58.4628C140.058 59.8704 139.068 61.4611 137.236 62.6697C135.437 63.8567 133.053 64.5061 130.819 64.16C129.775 63.9982 128.786 64.609 128.397 65.5319C127.645 67.3123 125.931 68.4072 123.772 68.7647C121.609 69.1229 119.138 68.7059 117.155 67.5964C116.225 67.0757 115.144 67.347 114.47 67.9331C113.321 68.9337 111.216 69.2627 108.917 68.7848C106.646 68.3126 104.519 67.115 103.41 65.5091C102.747 64.5482 101.48 64.2598 100.494 64.5839C99.1366 65.0304 97.3155 64.5004 95.5996 63.1496C93.9101 61.8196 92.5744 59.8776 92.1735 57.9915C91.9216 56.8066 90.7992 56.0925 89.8004 56.0032C88.5955 55.8956 87.3103 54.8779 86.4123 53.2699C85.5255 51.682 85.1866 49.8055 85.6024 48.3611C85.8731 47.4208 85.546 46.3211 84.6773 45.7318C82.1436 44.0131 81.5208 40.3779 83.2942 36.6783C83.7567 35.7135 83.3856 34.6883 82.8384 34.0775C82.0808 33.2318 81.7849 31.6507 82.164 29.7935C82.5355 27.9735 83.5123 26.1486 84.9184 24.9816C85.6663 24.3609 85.9222 23.3222 85.5842 22.4315C84.4295 19.3883 86.019 15.5645 89.9261 14.9683C91.0951 14.7899 91.9234 13.7119 91.8522 12.563Z" fill="#76A5C4" fill-opacity="0.7" stroke="#76A5C4" stroke-width="2"/>
<path d="M36.8013 84.8877C39.8515 81.1983 45.1772 81.3466 49.9967 83.6239C52.3658 84.7433 54.484 86.3312 55.9487 88.0535C57.4309 89.7963 58.1411 91.5478 57.9842 93.0278C57.9112 93.7156 58.1399 94.3958 58.4997 94.9131C58.8585 95.4288 59.4386 95.9086 60.19 96.0187C63.7245 96.5363 66.5212 99.9225 67.9757 104.066C68.6902 106.102 69.0419 108.227 68.996 110.099C68.9496 111.993 68.5007 113.508 67.7442 114.446C67.0519 115.304 66.9271 116.674 67.6099 117.638C68.3596 118.697 68.8258 120.25 68.9138 122.093C69.0012 123.924 68.7108 125.971 68.0229 127.952C66.6435 131.924 63.7296 135.483 59.2733 136.636C58.1232 136.933 57.5044 138.085 57.6547 139.138C57.9034 140.882 57.2134 142.613 55.7729 144.222C54.3294 145.834 52.1946 147.244 49.7792 148.272C47.3683 149.297 44.7397 149.915 42.3515 149.992C39.9447 150.069 37.9008 149.594 36.5365 148.572C35.7004 147.946 34.5382 147.963 33.7138 148.538C32.5477 149.352 30.7095 149.78 28.4695 149.74C26.2538 149.701 23.7642 149.205 21.4057 148.304C16.6085 146.469 12.7535 143.137 12.354 139.008C12.2405 137.834 11.2159 136.966 10.0915 136.95C6.79 136.904 3.74737 133.785 2.25351 129.53C0.771156 125.308 1.05407 120.602 3.71467 117.859C4.22109 117.337 4.3995 116.64 4.35831 116.021C4.31717 115.402 4.05056 114.747 3.51494 114.291C1.06719 112.206 0.436861 107.914 1.4849 103.731C1.99819 101.683 2.89387 99.772 4.06442 98.319C5.23526 96.8657 6.63642 95.9206 8.16984 95.6638C8.63456 95.586 9.04885 95.3507 9.37614 95.1051C9.71506 94.8508 10.0293 94.5336 10.2983 94.2009C10.8025 93.5772 11.2944 92.7138 11.3494 91.914C11.4485 90.4757 12.3544 88.8274 13.9496 87.2439C15.5265 85.6785 17.6817 84.2754 20.0545 83.3204C24.8599 81.3864 30.149 81.4155 33.3947 84.9757C34.3063 85.9756 35.9494 85.9182 36.8013 84.8877Z" fill="#3D6C94" fill-opacity="0.7" stroke="#3D6C94" stroke-width="2"/>
</svg>
