<svg width="151" height="232" viewBox="0 0 151 232" fill="none" xmlns="http://www.w3.org/2000/svg">
<path d="M10.8522 12.563C10.7113 10.2901 11.9717 8.32899 13.9672 7.10963C15.9698 5.88593 18.6103 5.48509 20.99 6.30599C22.0531 6.67271 23.2579 6.1721 23.7312 5.13573C25.6946 0.836517 30.4904 -0.00708452 33.2304 2.53813C34.099 3.345 35.492 3.3624 36.3815 2.58249C38.0496 1.11992 40.5024 0.710935 42.7712 1.19039C45.064 1.6749 46.8665 2.99351 47.4391 4.62453C47.8198 5.70877 49.0629 6.6057 50.3633 6.25683C55.1468 4.97354 59.0773 8.77883 58.8091 12.4843C58.7256 13.637 59.5382 14.7819 60.7473 14.9789C64.5647 15.6008 66.1375 19.3263 65.056 22.3391C64.7114 23.2992 65.0475 24.445 65.9707 25.0141C69.55 27.2203 69.7406 31.2162 67.6841 33.9351C67.0268 34.804 67.1219 35.9868 67.7245 36.7756C68.6677 38.0101 68.9193 39.8629 68.5881 41.7079C68.2536 43.5714 67.382 45.1145 66.4594 45.763C66.0173 46.0736 65.6335 46.5238 65.3781 47.0182C65.1262 47.5058 64.9481 48.1394 65.0792 48.7939C65.6757 51.7724 63.5299 54.8538 60.8579 55.6596C60.2248 55.8506 59.7432 56.294 59.4357 56.775C59.1278 57.2568 58.9416 57.8561 58.9766 58.4628C59.0577 59.8704 58.0678 61.4611 56.2361 62.6697C54.4373 63.8567 52.0525 64.5061 49.8193 64.1601C48.7747 63.9982 47.7863 64.609 47.3966 65.5319C46.6449 67.3123 44.9314 68.4072 42.772 68.7648C40.6089 69.123 38.138 68.7059 36.1553 67.5964C35.2248 67.0757 34.1435 67.347 33.4704 67.9331C32.3213 68.9337 30.216 69.2627 27.9172 68.7848C25.6464 68.3127 23.5194 67.115 22.4103 65.5091C21.7467 64.5482 20.4797 64.2598 19.4944 64.5839C18.1366 65.0304 16.3155 64.5004 14.5996 63.1496C12.9101 61.8196 11.5744 59.8776 11.1735 57.9916C10.9216 56.8066 9.79917 56.0925 8.80042 56.0032C7.59546 55.8956 6.31035 54.8779 5.41232 53.2699C4.52554 51.682 4.18656 49.8055 4.60243 48.3611C4.87313 47.4209 4.54596 46.3211 3.67726 45.7318C1.14359 44.0131 0.520806 40.3779 2.2942 36.6783C2.75668 35.7135 2.38557 34.6883 1.83838 34.0775C1.08083 33.2318 0.784924 31.6507 1.164 29.7935C1.53548 27.9735 2.5123 26.1486 3.91843 24.9816C4.66626 24.3609 4.92219 23.3222 4.58424 22.4316C3.42948 19.3883 5.01903 15.5645 8.92613 14.9683C10.0951 14.7899 10.9234 13.7119 10.8522 12.563Z" fill="#76A5C4" fill-opacity="0.7" stroke="#76A5C4" stroke-width="2"/>
<path d="M91.8522 12.563C91.7113 10.2901 92.9717 8.32899 94.9672 7.10963C96.9698 5.88593 99.6103 5.48509 101.99 6.30599C103.053 6.67271 104.258 6.1721 104.731 5.13573C106.695 0.836517 111.49 -0.00708452 114.23 2.53813C115.099 3.345 116.492 3.3624 117.381 2.58249C119.05 1.11992 121.502 0.710935 123.771 1.19039C126.064 1.6749 127.866 2.99351 128.439 4.62453C128.82 5.70877 130.063 6.6057 131.363 6.25683C136.147 4.97354 140.077 8.77883 139.809 12.4843C139.726 13.637 140.538 14.7819 141.747 14.9789C145.565 15.6008 147.138 19.3263 146.056 22.3391C145.711 23.2992 146.048 24.445 146.971 25.0141C150.55 27.2203 150.741 31.2162 148.684 33.9351C148.027 34.804 148.122 35.9868 148.724 36.7756C149.668 38.0101 149.919 39.8629 149.588 41.7079C149.254 43.5714 148.382 45.1145 147.459 45.763C147.017 46.0736 146.634 46.5238 146.378 47.0182C146.126 47.5058 145.948 48.1394 146.079 48.7939C146.676 51.7724 144.53 54.8538 141.858 55.6596C141.225 55.8506 140.743 56.294 140.436 56.775C140.128 57.2568 139.942 57.8561 139.977 58.4628C140.058 59.8704 139.068 61.4611 137.236 62.6697C135.437 63.8567 133.053 64.5061 130.819 64.1601C129.775 63.9982 128.786 64.609 128.397 65.5319C127.645 67.3123 125.931 68.4072 123.772 68.7648C121.609 69.123 119.138 68.7059 117.155 67.5964C116.225 67.0757 115.144 67.347 114.47 67.9331C113.321 68.9337 111.216 69.2627 108.917 68.7848C106.646 68.3127 104.519 67.115 103.41 65.5091C102.747 64.5482 101.48 64.2598 100.494 64.5839C99.1366 65.0304 97.3155 64.5004 95.5996 63.1496C93.9101 61.8196 92.5744 59.8776 92.1735 57.9916C91.9216 56.8066 90.7992 56.0925 89.8004 56.0032C88.5955 55.8956 87.3104 54.8779 86.4123 53.2699C85.5255 51.682 85.1866 49.8055 85.6024 48.3611C85.8731 47.4209 85.546 46.3211 84.6773 45.7318C82.1436 44.0131 81.5208 40.3779 83.2942 36.6783C83.7567 35.7135 83.3856 34.6883 82.8384 34.0775C82.0808 33.2318 81.7849 31.6507 82.164 29.7935C82.5355 27.9735 83.5123 26.1486 84.9184 24.9816C85.6663 24.3609 85.9222 23.3222 85.5842 22.4316C84.4295 19.3883 86.019 15.5645 89.9261 14.9683C91.0951 14.7899 91.9234 13.7119 91.8522 12.563Z" fill="#3D6C94" fill-opacity="0.7" stroke="#3D6C94" stroke-width="2"/>
<path d="M36.8013 84.8877C39.8515 81.1983 45.1772 81.3466 49.9967 83.6239C52.3658 84.7433 54.484 86.3312 55.9487 88.0535C57.4309 89.7963 58.1411 91.5478 57.9842 93.0278C57.9112 93.7156 58.1399 94.3958 58.4997 94.9131C58.8585 95.4288 59.4386 95.9086 60.19 96.0187C63.7245 96.5363 66.5212 99.9225 67.9757 104.066C68.6902 106.102 69.0419 108.227 68.996 110.099C68.9496 111.993 68.5007 113.508 67.7442 114.446C67.0519 115.304 66.9271 116.674 67.6099 117.638C68.3596 118.697 68.8258 120.25 68.9138 122.093C69.0012 123.924 68.7108 125.971 68.0229 127.952C66.6435 131.924 63.7296 135.483 59.2733 136.636C58.1232 136.933 57.5044 138.085 57.6547 139.138C57.9034 140.882 57.2134 142.613 55.7729 144.222C54.3294 145.834 52.1946 147.244 49.7792 148.272C47.3683 149.297 44.7397 149.915 42.3515 149.992C39.9447 150.069 37.9008 149.594 36.5365 148.572C35.7004 147.946 34.5382 147.963 33.7138 148.538C32.5477 149.352 30.7095 149.78 28.4695 149.74C26.2538 149.701 23.7642 149.205 21.4057 148.304C16.6085 146.469 12.7535 143.137 12.354 139.008C12.2405 137.834 11.2159 136.966 10.0915 136.95C6.79 136.904 3.74737 133.785 2.25351 129.53C0.771156 125.308 1.05407 120.602 3.71467 117.859C4.22109 117.337 4.3995 116.64 4.35831 116.021C4.31717 115.402 4.05056 114.747 3.51494 114.291C1.06719 112.206 0.436861 107.914 1.4849 103.731C1.99819 101.683 2.89387 99.772 4.06442 98.319C5.23526 96.8657 6.63642 95.9206 8.16984 95.6638C8.63456 95.586 9.04885 95.3507 9.37614 95.1051C9.71506 94.8508 10.0293 94.5336 10.2983 94.2009C10.8025 93.5772 11.2944 92.7138 11.3494 91.914C11.4485 90.4757 12.3544 88.8274 13.9496 87.2439C15.5265 85.6785 17.6817 84.2754 20.0545 83.3204C24.8599 81.3864 30.149 81.4155 33.3947 84.9757C34.3063 85.9756 35.9494 85.9182 36.8013 84.8877Z" fill="#76A5C4" fill-opacity="0.7" stroke="#76A5C4" stroke-width="2"/>
<path d="M91.8522 93.563C91.7113 91.2901 92.9717 89.329 94.9672 88.1096C96.9698 86.8859 99.6103 86.4851 101.99 87.306C103.053 87.6727 104.258 87.1721 104.731 86.1357C106.695 81.8365 111.49 80.9929 114.23 83.5381C115.099 84.345 116.492 84.3624 117.381 83.5825C119.05 82.1199 121.502 81.7109 123.771 82.1904C126.064 82.6749 127.866 83.9935 128.439 85.6245C128.82 86.7088 130.063 87.6057 131.363 87.2568C136.147 85.9735 140.077 89.7788 139.809 93.4843C139.726 94.637 140.538 95.7819 141.747 95.9789C145.565 96.6008 147.138 100.326 146.056 103.339C145.711 104.299 146.048 105.445 146.971 106.014C150.55 108.22 150.741 112.216 148.684 114.935C148.027 115.804 148.122 116.987 148.725 117.776C149.668 119.01 149.919 120.863 149.588 122.708C149.254 124.571 148.382 126.115 147.459 126.763C147.017 127.074 146.634 127.524 146.378 128.018C146.126 128.506 145.948 129.139 146.079 129.794C146.676 132.772 144.53 135.854 141.858 136.66C141.225 136.851 140.743 137.294 140.436 137.775C140.128 138.257 139.942 138.856 139.977 139.463C140.058 140.87 139.068 142.461 137.236 143.67C135.437 144.857 133.053 145.506 130.819 145.16C129.775 144.998 128.786 145.609 128.397 146.532C127.645 148.312 125.931 149.407 123.772 149.765C121.609 150.123 119.138 149.706 117.155 148.596C116.225 148.076 115.144 148.347 114.47 148.933C113.321 149.934 111.216 150.263 108.917 149.785C106.646 149.313 104.519 148.115 103.41 146.509C102.747 145.548 101.48 145.26 100.494 145.584C99.1366 146.03 97.3155 145.5 95.5996 144.15C93.9101 142.82 92.5744 140.878 92.1735 138.992C91.9216 137.807 90.7992 137.092 89.8004 137.003C88.5955 136.896 87.3103 135.878 86.4123 134.27C85.5255 132.682 85.1866 130.806 85.6024 129.361C85.8731 128.421 85.546 127.321 84.6773 126.732C82.1436 125.013 81.5208 121.378 83.2942 117.678C83.7567 116.714 83.3856 115.688 82.8384 115.077C82.0808 114.232 81.7849 112.651 82.164 110.793C82.5355 108.973 83.5123 107.149 84.9184 105.982C85.6663 105.361 85.9222 104.322 85.5842 103.432C84.4295 100.388 86.019 96.5645 89.9261 95.9683C91.0951 95.7899 91.9234 94.7119 91.8522 93.563Z" fill="#AFDDF3" fill-opacity="0.75" stroke="#AFDDF3" stroke-width="2"/>
<path d="M10.8522 174.563C10.7113 172.29 11.9717 170.329 13.9672 169.11C15.9698 167.886 18.6103 167.485 20.99 168.306C22.0531 168.673 23.2579 168.172 23.7312 167.136C25.6946 162.837 30.4904 161.993 33.2304 164.538C34.099 165.345 35.492 165.362 36.3815 164.582C38.0496 163.12 40.5024 162.711 42.7712 163.19C45.064 163.675 46.8665 164.994 47.4391 166.625C47.8198 167.709 49.0629 168.606 50.3633 168.257C55.1468 166.974 59.0773 170.779 58.8091 174.484C58.7256 175.637 59.5382 176.782 60.7473 176.979C64.5647 177.601 66.1375 181.326 65.056 184.339C64.7114 185.299 65.0475 186.445 65.9707 187.014C69.55 189.22 69.7406 193.216 67.6841 195.935C67.0268 196.804 67.1219 197.987 67.7245 198.776C68.6677 200.01 68.9193 201.863 68.5881 203.708C68.2536 205.571 67.382 207.115 66.4594 207.763C66.0173 208.074 65.6335 208.524 65.3781 209.018C65.1262 209.506 64.9481 210.139 65.0792 210.794C65.6757 213.772 63.5299 216.854 60.8579 217.66C60.2248 217.851 59.7432 218.294 59.4357 218.775C59.1278 219.257 58.9416 219.856 58.9766 220.463C59.0577 221.87 58.0678 223.461 56.2361 224.67C54.4373 225.857 52.0525 226.506 49.8193 226.16C48.7747 225.998 47.7863 226.609 47.3966 227.532C46.6449 229.312 44.9314 230.407 42.772 230.765C40.6089 231.123 38.138 230.706 36.1553 229.596C35.2248 229.076 34.1435 229.347 33.4704 229.933C32.3213 230.934 30.216 231.263 27.9172 230.785C25.6464 230.313 23.5194 229.115 22.4103 227.509C21.7467 226.548 20.4797 226.26 19.4944 226.584C18.1366 227.03 16.3155 226.5 14.5996 225.15C12.9101 223.82 11.5744 221.878 11.1735 219.992C10.9216 218.807 9.79917 218.092 8.80042 218.003C7.59546 217.896 6.31035 216.878 5.41232 215.27C4.52554 213.682 4.18656 211.806 4.60243 210.361C4.87313 209.421 4.54596 208.321 3.67726 207.732C1.14359 206.013 0.520806 202.378 2.2942 198.678C2.75668 197.714 2.38557 196.688 1.83838 196.077C1.08083 195.232 0.784924 193.651 1.164 191.793C1.53548 189.973 2.5123 188.149 3.91843 186.982C4.66626 186.361 4.92219 185.322 4.58424 184.432C3.42948 181.388 5.01903 177.564 8.92613 176.968C10.0951 176.79 10.9234 175.712 10.8522 174.563Z" fill="#76A5C4" fill-opacity="0.7" stroke="#76A5C4" stroke-width="2"/>
<path d="M91.8522 174.563C91.7113 172.29 92.9717 170.329 94.9672 169.11C96.9698 167.886 99.6103 167.485 101.99 168.306C103.053 168.673 104.258 168.172 104.731 167.136C106.695 162.837 111.49 161.993 114.23 164.538C115.099 165.345 116.492 165.362 117.381 164.582C119.05 163.12 121.502 162.711 123.771 163.19C126.064 163.675 127.866 164.994 128.439 166.625C128.82 167.709 130.063 168.606 131.363 168.257C136.147 166.974 140.077 170.779 139.809 174.484C139.726 175.637 140.538 176.782 141.747 176.979C145.565 177.601 147.138 181.326 146.056 184.339C145.711 185.299 146.048 186.445 146.971 187.014C150.55 189.22 150.741 193.216 148.684 195.935C148.027 196.804 148.122 197.987 148.725 198.776C149.668 200.01 149.919 201.863 149.588 203.708C149.254 205.571 148.382 207.115 147.459 207.763C147.017 208.074 146.634 208.524 146.378 209.018C146.126 209.506 145.948 210.139 146.079 210.794C146.676 213.772 144.53 216.854 141.858 217.66C141.225 217.851 140.743 218.294 140.436 218.775C140.128 219.257 139.942 219.856 139.977 220.463C140.058 221.87 139.068 223.461 137.236 224.67C135.437 225.857 133.053 226.506 130.819 226.16C129.775 225.998 128.786 226.609 128.397 227.532C127.645 229.312 125.931 230.407 123.772 230.765C121.609 231.123 119.138 230.706 117.155 229.596C116.225 229.076 115.144 229.347 114.47 229.933C113.321 230.934 111.216 231.263 108.917 230.785C106.646 230.313 104.519 229.115 103.41 227.509C102.747 226.548 101.48 226.26 100.494 226.584C99.1366 227.03 97.3155 226.5 95.5996 225.15C93.9101 223.82 92.5744 221.878 92.1735 219.992C91.9216 218.807 90.7992 218.092 89.8004 218.003C88.5955 217.896 87.3103 216.878 86.4123 215.27C85.5255 213.682 85.1866 211.806 85.6024 210.361C85.8731 209.421 85.546 208.321 84.6773 207.732C82.1436 206.013 81.5208 202.378 83.2942 198.678C83.7567 197.714 83.3856 196.688 82.8384 196.077C82.0808 195.232 81.7849 193.651 82.164 191.793C82.5355 189.973 83.5123 188.149 84.9184 186.982C85.6663 186.361 85.9222 185.322 85.5842 184.432C84.4295 181.388 86.019 177.564 89.9261 176.968C91.0951 176.79 91.9234 175.712 91.8522 174.563Z" fill="#76A5C4" fill-opacity="0.7" stroke="#76A5C4" stroke-width="2"/>
</svg>
