<svg width="151" height="70" viewBox="0 0 151 70" fill="none" xmlns="http://www.w3.org/2000/svg">
<path d="M91.8522 12.563C91.7113 10.2901 92.9717 8.32899 94.9672 7.10963C96.9698 5.88593 99.6103 5.48509 101.99 6.30599C103.053 6.67271 104.258 6.1721 104.731 5.13573C106.695 0.836517 111.49 -0.00708405 114.23 2.53813C115.099 3.345 116.492 3.3624 117.381 2.58249C119.05 1.11992 121.502 0.710935 123.771 1.19039C126.064 1.6749 127.866 2.99351 128.439 4.62453C128.82 5.70877 130.063 6.6057 131.363 6.25683C136.147 4.97353 140.077 8.77883 139.809 12.4843C139.726 13.637 140.538 14.7819 141.747 14.9789C145.565 15.6008 147.138 19.3263 146.056 22.3391C145.711 23.2992 146.048 24.445 146.971 25.0141C150.55 27.2203 150.741 31.2162 148.684 33.9351C148.027 34.804 148.122 35.9868 148.725 36.7756C149.668 38.0101 149.919 39.8629 149.588 41.7079C149.254 43.5714 148.382 45.1145 147.459 45.763C147.017 46.0736 146.634 46.5238 146.378 47.0182C146.126 47.5058 145.948 48.1394 146.079 48.7939C146.676 51.7724 144.53 54.8538 141.858 55.6596C141.225 55.8506 140.743 56.294 140.436 56.775C140.128 57.2568 139.942 57.8561 139.977 58.4628C140.058 59.8704 139.068 61.4611 137.236 62.6697C135.437 63.8567 133.053 64.5061 130.819 64.16C129.775 63.9982 128.786 64.609 128.397 65.5319C127.645 67.3123 125.931 68.4072 123.772 68.7647C121.609 69.1229 119.138 68.7059 117.155 67.5964C116.225 67.0757 115.144 67.347 114.47 67.9331C113.321 68.9337 111.216 69.2627 108.917 68.7848C106.646 68.3126 104.519 67.115 103.41 65.5091C102.747 64.5482 101.48 64.2598 100.494 64.5839C99.1366 65.0304 97.3155 64.5004 95.5996 63.1496C93.9101 61.8196 92.5744 59.8776 92.1735 57.9915C91.9216 56.8066 90.7992 56.0925 89.8004 56.0032C88.5955 55.8956 87.3103 54.8779 86.4123 53.2699C85.5255 51.682 85.1866 49.8055 85.6024 48.3611C85.8731 47.4208 85.546 46.3211 84.6773 45.7318C82.1436 44.0131 81.5208 40.3779 83.2942 36.6783C83.7567 35.7135 83.3856 34.6883 82.8384 34.0775C82.0808 33.2318 81.7849 31.6507 82.164 29.7935C82.5355 27.9735 83.5123 26.1486 84.9184 24.9816C85.6663 24.3609 85.9222 23.3222 85.5842 22.4315C84.4295 19.3883 86.019 15.5645 89.9261 14.9683C91.0951 14.7899 91.9234 13.7119 91.8522 12.563Z" fill="#AFDDF3" fill-opacity="0.75" stroke="#AFDDF3" stroke-width="2"/>
<path d="M36.8013 3.88771C39.8515 0.198327 45.1772 0.346645 49.9967 2.62393C52.3658 3.74334 54.484 5.33125 55.9487 7.05349C57.4309 8.79626 58.1411 10.5478 57.9842 12.0278C57.9112 12.7156 58.1399 13.3958 58.4997 13.9131C58.8585 14.4288 59.4386 14.9086 60.19 15.0187C63.7245 15.5363 66.5212 18.9225 67.9757 23.0661C68.6902 25.1016 69.0419 27.2273 68.996 29.0993C68.9496 30.9934 68.5007 32.5082 67.7442 33.4457C67.0519 34.3036 66.9271 35.6737 67.6099 36.638C68.3596 37.6967 68.8258 39.2497 68.9138 41.0929C69.0012 42.9243 68.7108 44.9709 68.0229 46.9518C66.6435 50.9244 63.7296 54.4826 59.2733 55.6356C58.1232 55.9332 57.5044 57.0851 57.6547 58.1383C57.9034 59.8819 57.2134 61.6126 55.7729 63.2216C54.3294 64.8339 52.1946 66.244 49.7792 67.2717C47.3683 68.2974 44.7397 68.9155 42.3515 68.992C39.9447 69.069 37.9008 68.5942 36.5365 67.572C35.7004 66.9455 34.5382 66.9631 33.7138 67.5381C32.5477 68.3516 30.7095 68.7798 28.4695 68.7403C26.2538 68.7013 23.7642 68.2054 21.4057 67.3036C16.6085 65.4694 12.7535 62.1373 12.354 58.0078C12.2405 56.8339 11.2159 55.966 10.0915 55.9502C6.79 55.9037 3.74737 52.785 2.25351 48.5301C0.771156 44.308 1.05407 39.602 3.71467 36.8591C4.22109 36.337 4.3995 35.6401 4.35831 35.0206C4.31717 34.4018 4.05056 33.7467 3.51494 33.2906C1.06719 31.2063 0.436861 26.9142 1.4849 22.7312C1.99819 20.6826 2.89387 18.772 4.06442 17.319C5.23526 15.8657 6.63642 14.9206 8.16984 14.6638C8.63456 14.586 9.04885 14.3507 9.37614 14.1051C9.71506 13.8508 10.0293 13.5336 10.2983 13.2009C10.8025 12.5772 11.2944 11.7138 11.3494 10.914C11.4485 9.47575 12.3544 7.82741 13.9496 6.24392C15.5265 4.67851 17.6817 3.27536 20.0545 2.32037C24.8599 0.386362 30.149 0.415456 33.3947 3.9757C34.3063 4.97557 35.9494 4.91821 36.8013 3.88771Z" fill="#3D6C94" fill-opacity="0.7" stroke="#3D6C94" stroke-width="2"/>
</svg>
