<svg width="151" height="70" viewBox="0 0 151 70" fill="none" xmlns="http://www.w3.org/2000/svg">
<path d="M10.8522 12.563C10.7113 10.2901 11.9717 8.32899 13.9672 7.10963C15.9698 5.88593 18.6103 5.48509 20.99 6.30599C22.0531 6.67271 23.2579 6.1721 23.7312 5.13573C25.6946 0.836517 30.4904 -0.00708405 33.2304 2.53813C34.099 3.345 35.492 3.3624 36.3815 2.58249C38.0496 1.11992 40.5024 0.710935 42.7712 1.19039C45.064 1.6749 46.8665 2.99351 47.4391 4.62453C47.8198 5.70877 49.0629 6.6057 50.3633 6.25683C55.1468 4.97353 59.0773 8.77883 58.8091 12.4843C58.7256 13.637 59.5382 14.7819 60.7473 14.9789C64.5647 15.6008 66.1375 19.3263 65.056 22.3391C64.7114 23.2992 65.0475 24.445 65.9707 25.0141C69.55 27.2203 69.7406 31.2162 67.6841 33.9351C67.0268 34.804 67.1219 35.9868 67.7245 36.7756C68.6677 38.0101 68.9193 39.8629 68.5881 41.7079C68.2536 43.5714 67.382 45.1145 66.4594 45.763C66.0173 46.0736 65.6335 46.5238 65.3781 47.0182C65.1262 47.5058 64.9481 48.1394 65.0792 48.7939C65.6757 51.7724 63.5299 54.8538 60.8579 55.6596C60.2248 55.8506 59.7432 56.294 59.4357 56.775C59.1278 57.2568 58.9416 57.8561 58.9766 58.4628C59.0577 59.8704 58.0678 61.4611 56.2361 62.6697C54.4373 63.8567 52.0525 64.5061 49.8193 64.16C48.7747 63.9982 47.7863 64.609 47.3966 65.5319C46.6449 67.3123 44.9314 68.4072 42.772 68.7647C40.6089 69.1229 38.138 68.7059 36.1553 67.5964C35.2248 67.0757 34.1435 67.347 33.4704 67.9331C32.3213 68.9337 30.216 69.2627 27.9172 68.7848C25.6464 68.3126 23.5194 67.115 22.4103 65.5091C21.7467 64.5482 20.4797 64.2598 19.4944 64.5839C18.1366 65.0304 16.3155 64.5004 14.5996 63.1496C12.9101 61.8196 11.5744 59.8776 11.1735 57.9915C10.9216 56.8066 9.79917 56.0925 8.80042 56.0032C7.59546 55.8956 6.31035 54.8779 5.41232 53.2699C4.52554 51.682 4.18656 49.8055 4.60243 48.3611C4.87313 47.4208 4.54596 46.3211 3.67726 45.7318C1.14359 44.0131 0.520806 40.3779 2.2942 36.6783C2.75668 35.7135 2.38557 34.6883 1.83838 34.0775C1.08083 33.2318 0.784924 31.6507 1.164 29.7935C1.53548 27.9735 2.5123 26.1486 3.91843 24.9816C4.66626 24.3609 4.92219 23.3222 4.58424 22.4315C3.42948 19.3883 5.01903 15.5645 8.92613 14.9683C10.0951 14.7899 10.9234 13.7119 10.8522 12.563Z" fill="#76A5C4" fill-opacity="0.7" stroke="#76A5C4" stroke-width="2"/>
<circle cx="116" cy="35" r="34" fill="#76A5C4" fill-opacity="0.7" stroke="#76A5C4" stroke-width="2"/>
</svg>
