<svg width="31" height="15" viewBox="0 0 31 15" fill="none" xmlns="http://www.w3.org/2000/svg">
<path d="M1.5 6.5C0.947715 6.5 0.5 6.94772 0.5 7.5C0.5 8.05228 0.947715 8.5 1.5 8.5V6.5ZM30.2071 8.20711C30.5976 7.81658 30.5976 7.18342 30.2071 6.79289L23.8431 0.428932C23.4526 0.0384078 22.8195 0.0384078 22.4289 0.428932C22.0384 0.819457 22.0384 1.45262 22.4289 1.84315L28.0858 7.5L22.4289 13.1569C22.0384 13.5474 22.0384 14.1805 22.4289 14.5711C22.8195 14.9616 23.4526 14.9616 23.8431 14.5711L30.2071 8.20711ZM1.5 8.5H29.5V6.5H1.5V8.5Z" fill="#262323"/>
</svg>
