<svg width="39" height="39" viewBox="0 0 39 39" fill="none" xmlns="http://www.w3.org/2000/svg">
<path d="M7.995 21.645C14.235 25.35 24.6675 25.74 30.615 23.8875C31.59 23.595 32.565 24.18 32.8575 25.0575C33.15 26.0325 32.565 27.0075 31.6875 27.3C24.765 29.3475 13.3575 28.9575 6.1425 24.6675C5.265 24.18 4.9725 23.01 5.46 22.1325C5.9475 21.45 7.1175 21.1575 7.995 21.645ZM8.19 16.185C8.6775 15.5025 9.555 15.21 10.2375 15.6975C15.5025 18.915 23.4975 19.89 29.64 17.94C30.42 17.745 31.2975 18.135 31.4925 18.915C31.6875 19.695 31.2975 20.5725 30.5175 20.7675C23.4 22.9125 14.625 21.84 8.58 18.135C7.995 17.8425 7.7025 16.8675 8.19 16.185ZM10.53 10.8225C10.92 10.2375 11.6025 10.0425 12.1875 10.4325C16.77 13.26 22.5225 13.845 29.3475 12.285C30.03 12.09 30.615 12.5775 30.81 13.1625C31.005 13.845 30.5175 14.43 29.9325 14.625C22.5225 16.2825 16.0875 15.6 11.0175 12.48C10.335 12.1875 10.2375 11.4075 10.53 10.8225ZM19.5 39C22.0608 39 24.5965 38.4956 26.9623 37.5157C29.3282 36.5357 31.4778 35.0993 33.2886 33.2886C36.9455 29.6316 39 24.6717 39 19.5C39 14.3283 36.9455 9.36838 33.2886 5.71142C31.4778 3.90067 29.3282 2.46431 26.9623 1.48435C24.5965 0.504379 22.0608 0 19.5 0C14.3283 0 9.36838 2.05446 5.71142 5.71142C2.05446 9.36838 0 14.3283 0 19.5C0 22.0608 0.504379 24.5965 1.48435 26.9623C2.46431 29.3282 3.90067 31.4778 5.71142 33.2886C7.52216 35.0993 9.67182 36.5357 12.0377 37.5157C14.4035 38.4956 16.9392 39 19.5 39Z" fill="#76A5C4"/>
</svg>
