<svg width="39" height="39" viewBox="0 0 39 39" fill="none" xmlns="http://www.w3.org/2000/svg">
<path d="M31.005 17.355C24.765 13.65 14.3325 13.26 8.385 15.1125C7.41 15.405 6.435 14.82 6.1425 13.9425C5.85 12.9675 6.435 11.9925 7.3125 11.7C14.235 9.6525 25.6425 10.0425 32.8575 14.3325C33.735 14.82 34.0275 15.99 33.54 16.8675C33.0525 17.55 31.8825 17.8425 31.005 17.355ZM30.81 22.815C30.3225 23.4975 29.445 23.79 28.7625 23.3025C23.4975 20.085 15.5025 19.11 9.36 21.06C8.58 21.255 7.7025 20.865 7.5075 20.085C7.3125 19.305 7.7025 18.4275 8.4825 18.2325C15.6 16.0875 24.375 17.16 30.42 20.865C31.005 21.1575 31.2975 22.1325 30.81 22.815ZM28.47 28.1775C28.08 28.7625 27.3975 28.9575 26.8125 28.5675C22.23 25.74 16.4775 25.155 9.6525 26.715C8.97 26.91 8.385 26.4225 8.19 25.8375C7.995 25.155 8.4825 24.57 9.0675 24.375C16.4775 22.7175 22.9125 23.4 27.9825 26.52C28.665 26.8125 28.7625 27.5925 28.47 28.1775ZM19.5 0C16.9392 0 14.4035 0.504382 12.0377 1.48435C9.67182 2.46432 7.52216 3.90068 5.71142 5.71142C2.05446 9.36838 0 14.3283 0 19.5C0 24.6717 2.05446 29.6316 5.71142 33.2886C7.52216 35.0993 9.67182 36.5357 12.0377 37.5157C14.4035 38.4956 16.9392 39 19.5 39C24.6717 39 29.6316 36.9455 33.2886 33.2886C36.9455 29.6316 39 24.6717 39 19.5C39 16.9392 38.4956 14.4035 37.5157 12.0377C36.5357 9.67182 35.0993 7.52216 33.2886 5.71142C31.4778 3.90068 29.3282 2.46432 26.9623 1.48435C24.5965 0.504382 22.0608 0 19.5 0Z" fill="#76A5C4"/>
</svg>
