<svg width="1023" height="33" viewBox="0 0 1023 33" fill="none" xmlns="http://www.w3.org/2000/svg">
<rect width="1023" height="33" fill="#262323"/>
<path d="M6.78 24.24C5.63333 24.24 4.60667 23.96 3.7 23.4C2.79333 22.8267 2.08 22 1.56 20.92C1.04 19.84 0.78 18.5333 0.78 17C0.78 15.4667 1.04 14.16 1.56 13.08C2.08 12 2.79333 11.18 3.7 10.62C4.60667 10.0467 5.63333 9.76 6.78 9.76C7.94 9.76 8.96667 10.0467 9.86 10.62C10.7667 11.18 11.48 12 12 13.08C12.52 14.16 12.78 15.4667 12.78 17C12.78 18.5333 12.52 19.84 12 20.92C11.48 22 10.7667 22.8267 9.86 23.4C8.96667 23.96 7.94 24.24 6.78 24.24ZM6.78 21.5C7.32667 21.5 7.8 21.3467 8.2 21.04C8.61333 20.7333 8.93333 20.2467 9.16 19.58C9.4 18.9133 9.52 18.0533 9.52 17C9.52 15.9467 9.4 15.0867 9.16 14.42C8.93333 13.7533 8.61333 13.2667 8.2 12.96C7.8 12.6533 7.32667 12.5 6.78 12.5C6.24667 12.5 5.77333 12.6533 5.36 12.96C4.96 13.2667 4.64 13.7533 4.4 14.42C4.17333 15.0867 4.06 15.9467 4.06 17C4.06 18.0533 4.17333 18.9133 4.4 19.58C4.64 20.2467 4.96 20.7333 5.36 21.04C5.77333 21.3467 6.24667 21.5 6.78 21.5Z" fill="#76A5C4"/>
<path d="M990.94 24V11.2L992.34 12.6H988.14V10H994.18V24H990.94ZM1002.61 24.24C1001.47 24.24 1000.44 23.96 999.532 23.4C998.625 22.8267 997.912 22 997.392 20.92C996.872 19.84 996.612 18.5333 996.612 17C996.612 15.4667 996.872 14.16 997.392 13.08C997.912 12 998.625 11.18 999.532 10.62C1000.44 10.0467 1001.47 9.76 1002.61 9.76C1003.77 9.76 1004.8 10.0467 1005.69 10.62C1006.6 11.18 1007.31 12 1007.83 13.08C1008.35 14.16 1008.61 15.4667 1008.61 17C1008.61 18.5333 1008.35 19.84 1007.83 20.92C1007.31 22 1006.6 22.8267 1005.69 23.4C1004.8 23.96 1003.77 24.24 1002.61 24.24ZM1002.61 21.5C1003.16 21.5 1003.63 21.3467 1004.03 21.04C1004.45 20.7333 1004.77 20.2467 1004.99 19.58C1005.23 18.9133 1005.35 18.0533 1005.35 17C1005.35 15.9467 1005.23 15.0867 1004.99 14.42C1004.77 13.7533 1004.45 13.2667 1004.03 12.96C1003.63 12.6533 1003.16 12.5 1002.61 12.5C1002.08 12.5 1001.61 12.6533 1001.19 12.96C1000.79 13.2667 1000.47 13.7533 1000.23 14.42C1000.01 15.0867 999.892 15.9467 999.892 17C999.892 18.0533 1000.01 18.9133 1000.23 19.58C1000.47 20.2467 1000.79 20.7333 1001.19 21.04C1001.61 21.3467 1002.08 21.5 1002.61 21.5ZM1016.19 24.24C1015.04 24.24 1014.01 23.96 1013.11 23.4C1012.2 22.8267 1011.49 22 1010.97 20.92C1010.45 19.84 1010.19 18.5333 1010.19 17C1010.19 15.4667 1010.45 14.16 1010.97 13.08C1011.49 12 1012.2 11.18 1013.11 10.62C1014.01 10.0467 1015.04 9.76 1016.19 9.76C1017.35 9.76 1018.37 10.0467 1019.27 10.62C1020.17 11.18 1020.89 12 1021.41 13.08C1021.93 14.16 1022.19 15.4667 1022.19 17C1022.19 18.5333 1021.93 19.84 1021.41 20.92C1020.89 22 1020.17 22.8267 1019.27 23.4C1018.37 23.96 1017.35 24.24 1016.19 24.24ZM1016.19 21.5C1016.73 21.5 1017.21 21.3467 1017.61 21.04C1018.02 20.7333 1018.34 20.2467 1018.57 19.58C1018.81 18.9133 1018.93 18.0533 1018.93 17C1018.93 15.9467 1018.81 15.0867 1018.57 14.42C1018.34 13.7533 1018.02 13.2667 1017.61 12.96C1017.21 12.6533 1016.73 12.5 1016.19 12.5C1015.65 12.5 1015.18 12.6533 1014.77 12.96C1014.37 13.2667 1014.05 13.7533 1013.81 14.42C1013.58 15.0867 1013.47 15.9467 1013.47 17C1013.47 18.0533 1013.58 18.9133 1013.81 19.58C1014.05 20.2467 1014.37 20.7333 1014.77 21.04C1015.18 21.3467 1015.65 21.5 1016.19 21.5Z" fill="#76A5C4"/>
<path d="M34 15C32.8954 15 32 15.8954 32 17C32 18.1046 32.8954 19 34 19V15ZM970.414 18.4142C971.195 17.6332 971.195 16.3668 970.414 15.5858L957.686 2.85786C956.905 2.07682 955.639 2.07682 954.858 2.85786C954.077 3.63891 954.077 4.90524 954.858 5.68629L966.172 17L954.858 28.3137C954.077 29.0948 954.077 30.3611 954.858 31.1421C955.639 31.9232 956.905 31.9232 957.686 31.1421L970.414 18.4142ZM34 19L969 19V15L34 15V19Z" fill="#76A5C4"/>
</svg>
