<svg width="1023" height="33" viewBox="0 0 1023 33" fill="none" xmlns="http://www.w3.org/2000/svg">
<rect width="1023" height="33" fill="#262323"/>
<path d="M1.04 19.62V17.12H6.7V19.62H1.04ZM10.2252 24V11.2L11.6252 12.6H7.42516V10H13.4652V24H10.2252ZM22.1572 24.24C20.8772 24.24 19.7639 23.9733 18.8172 23.44C17.8839 22.9067 17.1639 22.1267 16.6572 21.1C16.1505 20.0733 15.8972 18.8067 15.8972 17.3C15.8972 15.6867 16.1972 14.32 16.7972 13.2C17.4105 12.08 18.2505 11.2267 19.3172 10.64C20.3972 10.0533 21.6372 9.76 23.0372 9.76C23.7839 9.76 24.4972 9.84 25.1772 10C25.8572 10.16 26.4439 10.4 26.9372 10.72L25.7372 13.1C25.3505 12.8333 24.9372 12.6533 24.4972 12.56C24.0572 12.4533 23.5972 12.4 23.1172 12.4C21.9039 12.4 20.9439 12.7667 20.2372 13.5C19.5305 14.2333 19.1772 15.32 19.1772 16.76C19.1772 17 19.1772 17.2667 19.1772 17.56C19.1905 17.8533 19.2305 18.1467 19.2972 18.44L18.3972 17.6C18.6505 17.08 18.9772 16.6467 19.3772 16.3C19.7772 15.94 20.2505 15.6733 20.7972 15.5C21.3572 15.3133 21.9705 15.22 22.6372 15.22C23.5439 15.22 24.3572 15.4 25.0772 15.76C25.7972 16.12 26.3705 16.6267 26.7972 17.28C27.2372 17.9333 27.4572 18.7 27.4572 19.58C27.4572 20.5267 27.2172 21.3533 26.7372 22.06C26.2705 22.7533 25.6372 23.2933 24.8372 23.68C24.0505 24.0533 23.1572 24.24 22.1572 24.24ZM21.9772 21.82C22.4305 21.82 22.8305 21.74 23.1772 21.58C23.5372 21.4067 23.8172 21.16 24.0172 20.84C24.2172 20.52 24.3172 20.1533 24.3172 19.74C24.3172 19.1 24.0972 18.5933 23.6572 18.22C23.2305 17.8333 22.6572 17.64 21.9372 17.64C21.4572 17.64 21.0372 17.7333 20.6772 17.92C20.3172 18.0933 20.0305 18.34 19.8172 18.66C19.6172 18.9667 19.5172 19.3267 19.5172 19.74C19.5172 20.14 19.6172 20.5 19.8172 20.82C20.0172 21.1267 20.2972 21.3733 20.6572 21.56C21.0172 21.7333 21.4572 21.82 21.9772 21.82ZM34.0483 24.16C33.0349 24.16 32.1216 23.9333 31.3083 23.48C30.4949 23.0133 29.8483 22.3667 29.3683 21.54C28.9016 20.7133 28.6683 19.74 28.6683 18.62C28.6683 17.4867 28.9016 16.5067 29.3683 15.68C29.8483 14.8533 30.4949 14.2133 31.3083 13.76C32.1216 13.3067 33.0349 13.08 34.0483 13.08C34.9549 13.08 35.7483 13.28 36.4283 13.68C37.1083 14.08 37.6349 14.6867 38.0083 15.5C38.3816 16.3133 38.5683 17.3533 38.5683 18.62C38.5683 19.8733 38.3883 20.9133 38.0283 21.74C37.6683 22.5533 37.1483 23.16 36.4683 23.56C35.8016 23.96 34.9949 24.16 34.0483 24.16ZM34.5883 21.6C35.0949 21.6 35.5549 21.48 35.9683 21.24C36.3816 21 36.7083 20.66 36.9483 20.22C37.2016 19.7667 37.3283 19.2333 37.3283 18.62C37.3283 17.9933 37.2016 17.46 36.9483 17.02C36.7083 16.58 36.3816 16.24 35.9683 16C35.5549 15.76 35.0949 15.64 34.5883 15.64C34.0683 15.64 33.6016 15.76 33.1883 16C32.7749 16.24 32.4416 16.58 32.1883 17.02C31.9483 17.46 31.8283 17.9933 31.8283 18.62C31.8283 19.2333 31.9483 19.7667 32.1883 20.22C32.4416 20.66 32.7749 21 33.1883 21.24C33.6016 21.48 34.0683 21.6 34.5883 21.6ZM37.4083 24V21.8L37.4683 18.6L37.2683 15.42V9.16H40.3883V24H37.4083ZM49.6359 24.16C48.6893 24.16 47.8759 23.96 47.1959 23.56C46.5159 23.16 45.9959 22.5533 45.6359 21.74C45.2759 20.9133 45.0959 19.8733 45.0959 18.62C45.0959 17.3533 45.2826 16.3133 45.6559 15.5C46.0426 14.6867 46.5759 14.08 47.2559 13.68C47.9359 13.28 48.7293 13.08 49.6359 13.08C50.6493 13.08 51.5559 13.3067 52.3559 13.76C53.1693 14.2133 53.8093 14.8533 54.2759 15.68C54.7559 16.5067 54.9959 17.4867 54.9959 18.62C54.9959 19.74 54.7559 20.7133 54.2759 21.54C53.8093 22.3667 53.1693 23.0133 52.3559 23.48C51.5559 23.9333 50.6493 24.16 49.6359 24.16ZM43.2759 24V9.16H46.3959V15.42L46.1959 18.6L46.2559 21.8V24H43.2759ZM49.0959 21.6C49.6159 21.6 50.0759 21.48 50.4759 21.24C50.8893 21 51.2159 20.66 51.4559 20.22C51.7093 19.7667 51.8359 19.2333 51.8359 18.62C51.8359 17.9933 51.7093 17.46 51.4559 17.02C51.2159 16.58 50.8893 16.24 50.4759 16C50.0759 15.76 49.6159 15.64 49.0959 15.64C48.5759 15.64 48.1093 15.76 47.6959 16C47.2826 16.24 46.9559 16.58 46.7159 17.02C46.4759 17.46 46.3559 17.9933 46.3559 18.62C46.3559 19.2333 46.4759 19.7667 46.7159 20.22C46.9559 20.66 47.2826 21 47.6959 21.24C48.1093 21.48 48.5759 21.6 49.0959 21.6Z" fill="#76A5C4"/>
<path d="M983.78 24.24C982.633 24.24 981.607 23.96 980.7 23.4C979.793 22.8267 979.08 22 978.56 20.92C978.04 19.84 977.78 18.5333 977.78 17C977.78 15.4667 978.04 14.16 978.56 13.08C979.08 12 979.793 11.18 980.7 10.62C981.607 10.0467 982.633 9.76 983.78 9.76C984.94 9.76 985.967 10.0467 986.86 10.62C987.767 11.18 988.48 12 989 13.08C989.52 14.16 989.78 15.4667 989.78 17C989.78 18.5333 989.52 19.84 989 20.92C988.48 22 987.767 22.8267 986.86 23.4C985.967 23.96 984.94 24.24 983.78 24.24ZM983.78 21.5C984.327 21.5 984.8 21.3467 985.2 21.04C985.613 20.7333 985.933 20.2467 986.16 19.58C986.4 18.9133 986.52 18.0533 986.52 17C986.52 15.9467 986.4 15.0867 986.16 14.42C985.933 13.7533 985.613 13.2667 985.2 12.96C984.8 12.6533 984.327 12.5 983.78 12.5C983.247 12.5 982.773 12.6533 982.36 12.96C981.96 13.2667 981.64 13.7533 981.4 14.42C981.173 15.0867 981.06 15.9467 981.06 17C981.06 18.0533 981.173 18.9133 981.4 19.58C981.64 20.2467 981.96 20.7333 982.36 21.04C982.773 21.3467 983.247 21.5 983.78 21.5ZM996.634 24.16C995.621 24.16 994.708 23.9333 993.894 23.48C993.081 23.0133 992.434 22.3667 991.954 21.54C991.488 20.7133 991.254 19.74 991.254 18.62C991.254 17.4867 991.488 16.5067 991.954 15.68C992.434 14.8533 993.081 14.2133 993.894 13.76C994.708 13.3067 995.621 13.08 996.634 13.08C997.541 13.08 998.334 13.28 999.014 13.68C999.694 14.08 1000.22 14.6867 1000.59 15.5C1000.97 16.3133 1001.15 17.3533 1001.15 18.62C1001.15 19.8733 1000.97 20.9133 1000.61 21.74C1000.25 22.5533 999.734 23.16 999.054 23.56C998.388 23.96 997.581 24.16 996.634 24.16ZM997.174 21.6C997.681 21.6 998.141 21.48 998.554 21.24C998.968 21 999.294 20.66 999.534 20.22C999.788 19.7667 999.914 19.2333 999.914 18.62C999.914 17.9933 999.788 17.46 999.534 17.02C999.294 16.58 998.968 16.24 998.554 16C998.141 15.76 997.681 15.64 997.174 15.64C996.654 15.64 996.188 15.76 995.774 16C995.361 16.24 995.028 16.58 994.774 17.02C994.534 17.46 994.414 17.9933 994.414 18.62C994.414 19.2333 994.534 19.7667 994.774 20.22C995.028 20.66 995.361 21 995.774 21.24C996.188 21.48 996.654 21.6 997.174 21.6ZM999.994 24V21.8L1000.05 18.6L999.854 15.42V9.16H1002.97V24H999.994ZM1012.22 24.16C1011.28 24.16 1010.46 23.96 1009.78 23.56C1009.1 23.16 1008.58 22.5533 1008.22 21.74C1007.86 20.9133 1007.68 19.8733 1007.68 18.62C1007.68 17.3533 1007.87 16.3133 1008.24 15.5C1008.63 14.6867 1009.16 14.08 1009.84 13.68C1010.52 13.28 1011.32 13.08 1012.22 13.08C1013.24 13.08 1014.14 13.3067 1014.94 13.76C1015.76 14.2133 1016.4 14.8533 1016.86 15.68C1017.34 16.5067 1017.58 17.4867 1017.58 18.62C1017.58 19.74 1017.34 20.7133 1016.86 21.54C1016.4 22.3667 1015.76 23.0133 1014.94 23.48C1014.14 23.9333 1013.24 24.16 1012.22 24.16ZM1005.86 24V9.16H1008.98V15.42L1008.78 18.6L1008.84 21.8V24H1005.86ZM1011.68 21.6C1012.2 21.6 1012.66 21.48 1013.06 21.24C1013.48 21 1013.8 20.66 1014.04 20.22C1014.3 19.7667 1014.42 19.2333 1014.42 18.62C1014.42 17.9933 1014.3 17.46 1014.04 17.02C1013.8 16.58 1013.48 16.24 1013.06 16C1012.66 15.76 1012.2 15.64 1011.68 15.64C1011.16 15.64 1010.7 15.76 1010.28 16C1009.87 16.24 1009.54 16.58 1009.3 17.02C1009.06 17.46 1008.94 17.9933 1008.94 18.62C1008.94 19.2333 1009.06 19.7667 1009.3 20.22C1009.54 20.66 1009.87 21 1010.28 21.24C1010.7 21.48 1011.16 21.6 1011.68 21.6Z" fill="#76A5C4"/>
<path d="M71 15C69.8954 15 69 15.8954 69 17C69 18.1046 69.8954 19 71 19V15ZM962.914 18.4142C963.695 17.6332 963.695 16.3668 962.914 15.5858L950.186 2.85786C949.405 2.07682 948.139 2.07682 947.358 2.85786C946.577 3.63891 946.577 4.90524 947.358 5.68629L958.672 17L947.358 28.3137C946.577 29.0948 946.577 30.3611 947.358 31.1421C948.139 31.9232 949.405 31.9232 950.186 31.1421L962.914 18.4142ZM71 19L961.5 19V15L71 15V19Z" fill="#76A5C4"/>
</svg>
