<svg width="1023" height="61" viewBox="0 0 1023 61" fill="none" xmlns="http://www.w3.org/2000/svg">
<rect width="1023" height="61" fill="#262323"/>
<path d="M408.65 48L393.55 13H402.3L415.5 44H410.35L423.75 13H431.8L416.65 48H408.65ZM444.97 48.4C442.104 48.4 439.554 47.8 437.32 46.6C435.12 45.4 433.37 43.7667 432.07 41.7C430.804 39.6 430.17 37.2167 430.17 34.55C430.17 31.85 430.804 29.4667 432.07 27.4C433.37 25.3 435.12 23.6667 437.32 22.5C439.554 21.3 442.104 20.7 444.97 20.7C447.804 20.7 450.337 21.3 452.57 22.5C454.804 23.6667 456.554 25.2833 457.82 27.35C459.087 29.4167 459.72 31.8167 459.72 34.55C459.72 37.2167 459.087 39.6 457.82 41.7C456.554 43.7667 454.804 45.4 452.57 46.6C450.337 47.8 447.804 48.4 444.97 48.4ZM444.97 42C446.27 42 447.437 41.7 448.47 41.1C449.504 40.5 450.32 39.65 450.92 38.55C451.52 37.4167 451.82 36.0833 451.82 34.55C451.82 32.9833 451.52 31.65 450.92 30.55C450.32 29.45 449.504 28.6 448.47 28C447.437 27.4 446.27 27.1 444.97 27.1C443.67 27.1 442.504 27.4 441.47 28C440.437 28.6 439.604 29.45 438.97 30.55C438.37 31.65 438.07 32.9833 438.07 34.55C438.07 36.0833 438.37 37.4167 438.97 38.55C439.604 39.65 440.437 40.5 441.47 41.1C442.504 41.7 443.67 42 444.97 42ZM464.934 48V10.9H472.734V48H464.934ZM491.323 48.4C489.09 48.4 487.09 47.9667 485.323 47.1C483.59 46.2333 482.24 44.9167 481.273 43.15C480.306 41.35 479.823 39.0667 479.823 36.3V21.1H487.623V35.15C487.623 37.3833 488.09 39.0333 489.023 40.1C489.99 41.1333 491.34 41.65 493.073 41.65C494.273 41.65 495.34 41.4 496.273 40.9C497.206 40.3667 497.94 39.5667 498.473 38.5C499.006 37.4 499.273 36.0333 499.273 34.4V21.1H507.073V48H499.673V40.6L501.023 42.75C500.123 44.6167 498.79 46.0333 497.023 47C495.29 47.9333 493.39 48.4 491.323 48.4ZM548.749 20.7C550.883 20.7 552.766 21.1333 554.399 22C556.066 22.8333 557.366 24.1333 558.299 25.9C559.266 27.6333 559.749 29.8667 559.749 32.6V48H551.949V33.8C551.949 31.6333 551.499 30.0333 550.599 29C549.699 27.9667 548.433 27.45 546.799 27.45C545.666 27.45 544.649 27.7167 543.749 28.25C542.849 28.75 542.149 29.5167 541.649 30.55C541.149 31.5833 540.899 32.9 540.899 34.5V48H533.099V33.8C533.099 31.6333 532.649 30.0333 531.749 29C530.883 27.9667 529.633 27.45 527.999 27.45C526.866 27.45 525.849 27.7167 524.949 28.25C524.049 28.75 523.349 29.5167 522.849 30.55C522.349 31.5833 522.099 32.9 522.099 34.5V48H514.299V21.1H521.749V28.45L520.349 26.3C521.283 24.4667 522.599 23.0833 524.299 22.15C526.033 21.1833 527.999 20.7 530.199 20.7C532.666 20.7 534.816 21.3333 536.649 22.6C538.516 23.8333 539.749 25.7333 540.349 28.3L537.599 27.55C538.499 25.45 539.933 23.7833 541.899 22.55C543.899 21.3167 546.183 20.7 548.749 20.7ZM580.286 48.4C577.219 48.4 574.519 47.8 572.186 46.6C569.886 45.4 568.103 43.7667 566.836 41.7C565.569 39.6 564.936 37.2167 564.936 34.55C564.936 31.85 565.553 29.4667 566.786 27.4C568.053 25.3 569.769 23.6667 571.936 22.5C574.103 21.3 576.553 20.7 579.286 20.7C581.919 20.7 584.286 21.2667 586.386 22.4C588.519 23.5 590.203 25.1 591.436 27.2C592.669 29.2667 593.286 31.75 593.286 34.65C593.286 34.95 593.269 35.3 593.236 35.7C593.203 36.0667 593.169 36.4167 593.136 36.75H571.286V32.2H589.036L586.036 33.55C586.036 32.15 585.753 30.9333 585.186 29.9C584.619 28.8667 583.836 28.0667 582.836 27.5C581.836 26.9 580.669 26.6 579.336 26.6C578.003 26.6 576.819 26.9 575.786 27.5C574.786 28.0667 574.003 28.8833 573.436 29.95C572.869 30.9833 572.586 32.2167 572.586 33.65V34.85C572.586 36.3167 572.903 37.6167 573.536 38.75C574.203 39.85 575.119 40.7 576.286 41.3C577.486 41.8667 578.886 42.15 580.486 42.15C581.919 42.15 583.169 41.9333 584.236 41.5C585.336 41.0667 586.336 40.4167 587.236 39.55L591.386 44.05C590.153 45.45 588.603 46.5333 586.736 47.3C584.869 48.0333 582.719 48.4 580.286 48.4ZM614.829 20.7C616.962 20.7 618.862 21.1333 620.529 22C622.229 22.8333 623.562 24.1333 624.529 25.9C625.496 27.6333 625.979 29.8667 625.979 32.6V48H618.179V33.8C618.179 31.6333 617.696 30.0333 616.729 29C615.796 27.9667 614.462 27.45 612.729 27.45C611.496 27.45 610.379 27.7167 609.379 28.25C608.412 28.75 607.646 29.5333 607.079 30.6C606.546 31.6667 606.279 33.0333 606.279 34.7V48H598.479V21.1H605.929V28.55L604.529 26.3C605.496 24.5 606.879 23.1167 608.679 22.15C610.479 21.1833 612.529 20.7 614.829 20.7Z" fill="#76A5C4"/>
<path d="M372 29H2" stroke="#76A5C4" stroke-width="4" stroke-linecap="round"/>
<path d="M653 31L1021 31" stroke="#76A5C4" stroke-width="4" stroke-linecap="round"/>
</svg>
