<svg width="1023" height="61" viewBox="0 0 1023 61" fill="none" xmlns="http://www.w3.org/2000/svg">
<rect width="1023" height="61" fill="#262323"/>
<path d="M353.15 48V13H368.3C371.433 13 374.133 13.5167 376.4 14.55C378.667 15.55 380.417 17 381.65 18.9C382.883 20.8 383.5 23.0667 383.5 25.7C383.5 28.3 382.883 30.55 381.65 32.45C380.417 34.35 378.667 35.8167 376.4 36.85C374.133 37.85 371.433 38.35 368.3 38.35H357.65L361.25 34.7V48H353.15ZM361.25 35.6L357.65 31.75H367.85C370.35 31.75 372.217 31.2167 373.45 30.15C374.683 29.0833 375.3 27.6 375.3 25.7C375.3 23.7667 374.683 22.2667 373.45 21.2C372.217 20.1333 370.35 19.6 367.85 19.6H357.65L361.25 15.75V35.6ZM401.484 48.4C398.617 48.4 396.067 47.8 393.834 46.6C391.634 45.4 389.884 43.7667 388.584 41.7C387.317 39.6 386.684 37.2167 386.684 34.55C386.684 31.85 387.317 29.4667 388.584 27.4C389.884 25.3 391.634 23.6667 393.834 22.5C396.067 21.3 398.617 20.7 401.484 20.7C404.317 20.7 406.851 21.3 409.084 22.5C411.317 23.6667 413.067 25.2833 414.334 27.35C415.601 29.4167 416.234 31.8167 416.234 34.55C416.234 37.2167 415.601 39.6 414.334 41.7C413.067 43.7667 411.317 45.4 409.084 46.6C406.851 47.8 404.317 48.4 401.484 48.4ZM401.484 42C402.784 42 403.951 41.7 404.984 41.1C406.017 40.5 406.834 39.65 407.434 38.55C408.034 37.4167 408.334 36.0833 408.334 34.55C408.334 32.9833 408.034 31.65 407.434 30.55C406.834 29.45 406.017 28.6 404.984 28C403.951 27.4 402.784 27.1 401.484 27.1C400.184 27.1 399.017 27.4 397.984 28C396.951 28.6 396.117 29.45 395.484 30.55C394.884 31.65 394.584 32.9833 394.584 34.55C394.584 36.0833 394.884 37.4167 395.484 38.55C396.117 39.65 396.951 40.5 397.984 41.1C399.017 41.7 400.184 42 401.484 42ZM437.348 48.4C435.081 48.4 433.098 47.9 431.398 46.9C429.698 45.9 428.364 44.3833 427.398 42.35C426.464 40.2833 425.998 37.6833 425.998 34.55C425.998 31.3833 426.448 28.7833 427.348 26.75C428.248 24.7167 429.548 23.2 431.248 22.2C432.948 21.2 434.981 20.7 437.348 20.7C439.881 20.7 442.148 21.2833 444.148 22.45C446.181 23.5833 447.781 25.1833 448.948 27.25C450.148 29.3167 450.748 31.75 450.748 34.55C450.748 37.3833 450.148 39.8333 448.948 41.9C447.781 43.9667 446.181 45.5667 444.148 46.7C442.148 47.8333 439.881 48.4 437.348 48.4ZM421.448 57.7V21.1H428.898V26.6L428.748 34.6L429.248 42.55V57.7H421.448ZM435.998 42C437.298 42 438.448 41.7 439.448 41.1C440.481 40.5 441.298 39.65 441.898 38.55C442.531 37.4167 442.848 36.0833 442.848 34.55C442.848 32.9833 442.531 31.65 441.898 30.55C441.298 29.45 440.481 28.6 439.448 28C438.448 27.4 437.298 27.1 435.998 27.1C434.698 27.1 433.531 27.4 432.498 28C431.464 28.6 430.648 29.45 430.048 30.55C429.448 31.65 429.148 32.9833 429.148 34.55C429.148 36.0833 429.448 37.4167 430.048 38.55C430.648 39.65 431.464 40.5 432.498 41.1C433.531 41.7 434.698 42 435.998 42ZM467.319 48.4C465.086 48.4 463.086 47.9667 461.319 47.1C459.586 46.2333 458.236 44.9167 457.269 43.15C456.302 41.35 455.819 39.0667 455.819 36.3V21.1H463.619V35.15C463.619 37.3833 464.086 39.0333 465.019 40.1C465.986 41.1333 467.336 41.65 469.069 41.65C470.269 41.65 471.336 41.4 472.269 40.9C473.202 40.3667 473.936 39.5667 474.469 38.5C475.002 37.4 475.269 36.0333 475.269 34.4V21.1H483.069V48H475.669V40.6L477.019 42.75C476.119 44.6167 474.786 46.0333 473.019 47C471.286 47.9333 469.386 48.4 467.319 48.4ZM490.295 48V10.9H498.095V48H490.295ZM521.834 48V42.75L521.334 41.6V32.2C521.334 30.5333 520.818 29.2333 519.784 28.3C518.784 27.3667 517.234 26.9 515.134 26.9C513.701 26.9 512.284 27.1333 510.884 27.6C509.518 28.0333 508.351 28.6333 507.384 29.4L504.584 23.95C506.051 22.9167 507.818 22.1167 509.884 21.55C511.951 20.9833 514.051 20.7 516.184 20.7C520.284 20.7 523.468 21.6667 525.734 23.6C528.001 25.5333 529.134 28.55 529.134 32.65V48H521.834ZM513.634 48.4C511.534 48.4 509.734 48.05 508.234 47.35C506.734 46.6167 505.584 45.6333 504.784 44.4C503.984 43.1667 503.584 41.7833 503.584 40.25C503.584 38.65 503.968 37.25 504.734 36.05C505.534 34.85 506.784 33.9167 508.484 33.25C510.184 32.55 512.401 32.2 515.134 32.2H522.284V36.75H515.984C514.151 36.75 512.884 37.05 512.184 37.65C511.518 38.25 511.184 39 511.184 39.9C511.184 40.9 511.568 41.7 512.334 42.3C513.134 42.8667 514.218 43.15 515.584 43.15C516.884 43.15 518.051 42.85 519.084 42.25C520.118 41.6167 520.868 40.7 521.334 39.5L522.534 43.1C521.968 44.8333 520.934 46.15 519.434 47.05C517.934 47.95 516.001 48.4 513.634 48.4ZM536.194 48V21.1H543.644V28.7L542.594 26.5C543.394 24.6 544.677 23.1667 546.444 22.2C548.21 21.2 550.36 20.7 552.894 20.7V27.9C552.56 27.8667 552.26 27.85 551.994 27.85C551.727 27.8167 551.444 27.8 551.144 27.8C549.01 27.8 547.277 28.4167 545.944 29.65C544.644 30.85 543.994 32.7333 543.994 35.3V48H536.194ZM557.58 48V21.1H565.38V48H557.58ZM561.48 17.35C560.047 17.35 558.88 16.9333 557.98 16.1C557.08 15.2667 556.63 14.2333 556.63 13C556.63 11.7667 557.08 10.7333 557.98 9.9C558.88 9.06666 560.047 8.65 561.48 8.65C562.914 8.65 564.08 9.05 564.98 9.85C565.88 10.6167 566.33 11.6167 566.33 12.85C566.33 14.15 565.88 15.2333 564.98 16.1C564.114 16.9333 562.947 17.35 561.48 17.35ZM584.17 48.4C581.636 48.4 579.353 47.8333 577.32 46.7C575.286 45.5333 573.67 43.9167 572.47 41.85C571.303 39.7833 570.72 37.35 570.72 34.55C570.72 31.7167 571.303 29.2667 572.47 27.2C573.67 25.1333 575.286 23.5333 577.32 22.4C579.353 21.2667 581.636 20.7 584.17 20.7C586.436 20.7 588.42 21.2 590.12 22.2C591.82 23.2 593.136 24.7167 594.07 26.75C595.003 28.7833 595.47 31.3833 595.47 34.55C595.47 37.6833 595.02 40.2833 594.12 42.35C593.22 44.3833 591.92 45.9 590.22 46.9C588.553 47.9 586.536 48.4 584.17 48.4ZM585.52 42C586.786 42 587.936 41.7 588.97 41.1C590.003 40.5 590.82 39.65 591.42 38.55C592.053 37.4167 592.37 36.0833 592.37 34.55C592.37 32.9833 592.053 31.65 591.42 30.55C590.82 29.45 590.003 28.6 588.97 28C587.936 27.4 586.786 27.1 585.52 27.1C584.22 27.1 583.053 27.4 582.02 28C580.986 28.6 580.153 29.45 579.52 30.55C578.92 31.65 578.62 32.9833 578.62 34.55C578.62 36.0833 578.92 37.4167 579.52 38.55C580.153 39.65 580.986 40.5 582.02 41.1C583.053 41.7 584.22 42 585.52 42ZM592.57 48V42.5L592.72 34.5L592.22 26.55V10.9H600.02V48H592.57ZM623.739 48V42.75L623.239 41.6V32.2C623.239 30.5333 622.722 29.2333 621.689 28.3C620.689 27.3667 619.139 26.9 617.039 26.9C615.605 26.9 614.189 27.1333 612.789 27.6C611.422 28.0333 610.255 28.6333 609.289 29.4L606.489 23.95C607.955 22.9167 609.722 22.1167 611.789 21.55C613.855 20.9833 615.955 20.7 618.089 20.7C622.189 20.7 625.372 21.6667 627.639 23.6C629.905 25.5333 631.039 28.55 631.039 32.65V48H623.739ZM615.539 48.4C613.439 48.4 611.639 48.05 610.139 47.35C608.639 46.6167 607.489 45.6333 606.689 44.4C605.889 43.1667 605.489 41.7833 605.489 40.25C605.489 38.65 605.872 37.25 606.639 36.05C607.439 34.85 608.689 33.9167 610.389 33.25C612.089 32.55 614.305 32.2 617.039 32.2H624.189V36.75H617.889C616.055 36.75 614.789 37.05 614.089 37.65C613.422 38.25 613.089 39 613.089 39.9C613.089 40.9 613.472 41.7 614.239 42.3C615.039 42.8667 616.122 43.15 617.489 43.15C618.789 43.15 619.955 42.85 620.989 42.25C622.022 41.6167 622.772 40.7 623.239 39.5L624.439 43.1C623.872 44.8333 622.839 46.15 621.339 47.05C619.839 47.95 617.905 48.4 615.539 48.4ZM649.843 48.4C647.31 48.4 645.027 47.8333 642.993 46.7C640.96 45.5333 639.343 43.9167 638.143 41.85C636.977 39.7833 636.393 37.35 636.393 34.55C636.393 31.7167 636.977 29.2667 638.143 27.2C639.343 25.1333 640.96 23.5333 642.993 22.4C645.027 21.2667 647.31 20.7 649.843 20.7C652.11 20.7 654.093 21.2 655.793 22.2C657.493 23.2 658.81 24.7167 659.743 26.75C660.677 28.7833 661.143 31.3833 661.143 34.55C661.143 37.6833 660.693 40.2833 659.793 42.35C658.893 44.3833 657.593 45.9 655.893 46.9C654.227 47.9 652.21 48.4 649.843 48.4ZM651.193 42C652.46 42 653.61 41.7 654.643 41.1C655.677 40.5 656.493 39.65 657.093 38.55C657.727 37.4167 658.043 36.0833 658.043 34.55C658.043 32.9833 657.727 31.65 657.093 30.55C656.493 29.45 655.677 28.6 654.643 28C653.61 27.4 652.46 27.1 651.193 27.1C649.893 27.1 648.727 27.4 647.693 28C646.66 28.6 645.827 29.45 645.193 30.55C644.593 31.65 644.293 32.9833 644.293 34.55C644.293 36.0833 644.593 37.4167 645.193 38.55C645.827 39.65 646.66 40.5 647.693 41.1C648.727 41.7 649.893 42 651.193 42ZM658.243 48V42.5L658.393 34.5L657.893 26.55V10.9H665.693V48H658.243Z" fill="#76A5C4"/>
<path d="M321 29H2" stroke="#76A5C4" stroke-width="4" stroke-linecap="round"/>
<path d="M694 31L1021 31" stroke="#76A5C4" stroke-width="4" stroke-linecap="round"/>
</svg>
