<svg width="110" height="27" viewBox="0 0 110 27" fill="none" xmlns="http://www.w3.org/2000/svg">
<path d="M5.816 16L0.92 4.8H3.176L7.544 14.928H6.248L10.664 4.8H12.744L7.864 16H5.816ZM17.1093 16.112C16.1599 16.112 15.3279 15.9253 14.6133 15.552C13.9093 15.168 13.3599 14.6453 12.9653 13.984C12.5813 13.3227 12.3893 12.5707 12.3893 11.728C12.3893 10.8747 12.5759 10.1227 12.9493 9.472C13.3333 8.81067 13.8559 8.29333 14.5173 7.92C15.1893 7.54667 15.9519 7.36 16.8053 7.36C17.6373 7.36 18.3786 7.54133 19.0293 7.904C19.6799 8.26667 20.1919 8.77867 20.5653 9.44C20.9386 10.1013 21.1253 10.88 21.1253 11.776C21.1253 11.8613 21.1199 11.9573 21.1093 12.064C21.1093 12.1707 21.1039 12.272 21.0933 12.368H13.9733V11.04H20.0373L19.2533 11.456C19.2639 10.9653 19.1626 10.5333 18.9493 10.16C18.7359 9.78667 18.4426 9.49333 18.0693 9.28C17.7066 9.06667 17.2853 8.96 16.8053 8.96C16.3146 8.96 15.8826 9.06667 15.5093 9.28C15.1466 9.49333 14.8586 9.792 14.6453 10.176C14.4426 10.5493 14.3413 10.992 14.3413 11.504V11.824C14.3413 12.336 14.4586 12.7893 14.6933 13.184C14.9279 13.5787 15.2586 13.8827 15.6853 14.096C16.1119 14.3093 16.6026 14.416 17.1573 14.416C17.6373 14.416 18.0693 14.3413 18.4533 14.192C18.8373 14.0427 19.1786 13.808 19.4773 13.488L20.5493 14.72C20.1653 15.168 19.6799 15.5147 19.0933 15.76C18.5173 15.9947 17.8559 16.112 17.1093 16.112ZM23.0464 16V7.456H24.9504V9.808L24.7264 9.12C24.9824 8.544 25.3824 8.10667 25.9264 7.808C26.481 7.50933 27.169 7.36 27.9904 7.36V9.264C27.905 9.24267 27.825 9.232 27.7504 9.232C27.6757 9.22133 27.601 9.216 27.5264 9.216C26.769 9.216 26.1664 9.44 25.7184 9.888C25.2704 10.3253 25.0464 10.9813 25.0464 11.856V16H23.0464ZM39.451 16V14.272L39.339 13.904V10.88C39.339 10.2933 39.163 9.84 38.811 9.52C38.459 9.18933 37.9257 9.024 37.211 9.024C36.731 9.024 36.2563 9.09867 35.787 9.248C35.3283 9.39733 34.939 9.60533 34.619 9.872L33.835 8.416C34.2937 8.064 34.8377 7.80267 35.467 7.632C36.107 7.45067 36.7683 7.36 37.451 7.36C38.6883 7.36 39.643 7.65867 40.315 8.256C40.9977 8.84267 41.339 9.75467 41.339 10.992V16H39.451ZM36.763 16.112C36.123 16.112 35.563 16.0053 35.083 15.792C34.603 15.568 34.2297 15.264 33.963 14.88C33.707 14.4853 33.579 14.0427 33.579 13.552C33.579 13.072 33.691 12.64 33.915 12.256C34.1497 11.872 34.5283 11.568 35.051 11.344C35.5737 11.12 36.267 11.008 37.131 11.008H39.611V12.336H37.275C36.5923 12.336 36.1337 12.448 35.899 12.672C35.6643 12.8853 35.547 13.152 35.547 13.472C35.547 13.8347 35.691 14.1227 35.979 14.336C36.267 14.5493 36.667 14.656 37.179 14.656C37.6697 14.656 38.107 14.544 38.491 14.32C38.8857 14.096 39.1683 13.7653 39.339 13.328L39.675 14.528C39.483 15.0293 39.1363 15.4187 38.635 15.696C38.1443 15.9733 37.5203 16.112 36.763 16.112ZM48.7538 7.36C49.4364 7.36 50.0444 7.49333 50.5778 7.76C51.1218 8.02667 51.5484 8.43733 51.8578 8.992C52.1671 9.536 52.3218 10.24 52.3218 11.104V16H50.3218V11.36C50.3218 10.6027 50.1404 10.0373 49.7778 9.664C49.4258 9.29067 48.9298 9.104 48.2898 9.104C47.8204 9.104 47.4044 9.2 47.0418 9.392C46.6791 9.584 46.3964 9.872 46.1938 10.256C46.0018 10.6293 45.9058 11.104 45.9058 11.68V16H43.9058V7.456H45.8098V9.76L45.4738 9.056C45.7724 8.512 46.2044 8.096 46.7698 7.808C47.3458 7.50933 48.0071 7.36 48.7538 7.36ZM60.1229 16V14.272L60.0109 13.904V10.88C60.0109 10.2933 59.8349 9.84 59.4829 9.52C59.1309 9.18933 58.5975 9.024 57.8829 9.024C57.4029 9.024 56.9282 9.09867 56.4589 9.248C56.0002 9.39733 55.6109 9.60533 55.2909 9.872L54.5069 8.416C54.9655 8.064 55.5095 7.80267 56.1389 7.632C56.7789 7.45067 57.4402 7.36 58.1229 7.36C59.3602 7.36 60.3149 7.65867 60.9869 8.256C61.6695 8.84267 62.0109 9.75467 62.0109 10.992V16H60.1229ZM57.4349 16.112C56.7949 16.112 56.2349 16.0053 55.7549 15.792C55.2749 15.568 54.9015 15.264 54.6349 14.88C54.3789 14.4853 54.2509 14.0427 54.2509 13.552C54.2509 13.072 54.3629 12.64 54.5869 12.256C54.8215 11.872 55.2002 11.568 55.7229 11.344C56.2455 11.12 56.9389 11.008 57.8029 11.008H60.2829V12.336H57.9469C57.2642 12.336 56.8055 12.448 56.5709 12.672C56.3362 12.8853 56.2189 13.152 56.2189 13.472C56.2189 13.8347 56.3629 14.1227 56.6509 14.336C56.9389 14.5493 57.3389 14.656 57.8509 14.656C58.3415 14.656 58.7789 14.544 59.1629 14.32C59.5575 14.096 59.8402 13.7653 60.0109 13.328L60.3469 14.528C60.1549 15.0293 59.8082 15.4187 59.3069 15.696C58.8162 15.9733 58.1922 16.112 57.4349 16.112ZM56.9549 6.288L59.1149 4.096H61.4669L58.6829 6.288H56.9549ZM64.5776 16V4.128H66.5776V16H64.5776ZM69.2026 16V7.456H71.2026V16H69.2026ZM70.2106 6.048C69.8373 6.048 69.528 5.93067 69.2826 5.696C69.048 5.46133 68.9306 5.17867 68.9306 4.848C68.9306 4.50667 69.048 4.224 69.2826 4C69.528 3.76533 69.8373 3.648 70.2106 3.648C70.584 3.648 70.888 3.76 71.1226 3.984C71.368 4.19733 71.4906 4.46933 71.4906 4.8C71.4906 5.152 71.3733 5.45067 71.1386 5.696C70.904 5.93067 70.5946 6.048 70.2106 6.048ZM76.4676 16.112C75.753 16.112 75.065 16.0213 74.4036 15.84C73.753 15.648 73.2356 15.4187 72.8516 15.152L73.6196 13.632C74.0036 13.8773 74.4623 14.08 74.9956 14.24C75.529 14.4 76.0623 14.48 76.5956 14.48C77.225 14.48 77.6783 14.3947 77.9556 14.224C78.2436 14.0533 78.3876 13.824 78.3876 13.536C78.3876 13.3013 78.2916 13.1253 78.0996 13.008C77.9076 12.88 77.657 12.784 77.3476 12.72C77.0383 12.656 76.6916 12.5973 76.3076 12.544C75.9343 12.4907 75.5556 12.4213 75.1716 12.336C74.7983 12.24 74.457 12.1067 74.1476 11.936C73.8383 11.7547 73.5876 11.5147 73.3956 11.216C73.2036 10.9173 73.1076 10.5227 73.1076 10.032C73.1076 9.488 73.2623 9.01867 73.5716 8.624C73.881 8.21867 74.313 7.90933 74.8676 7.696C75.433 7.472 76.0996 7.36 76.8676 7.36C77.4436 7.36 78.025 7.424 78.6116 7.552C79.1983 7.68 79.6836 7.86133 80.0676 8.096L79.2996 9.616C78.8943 9.37067 78.4836 9.20533 78.0676 9.12C77.6623 9.024 77.257 8.976 76.8516 8.976C76.2436 8.976 75.7903 9.06667 75.4916 9.248C75.2036 9.42933 75.0596 9.65867 75.0596 9.936C75.0596 10.192 75.1556 10.384 75.3476 10.512C75.5396 10.64 75.7903 10.7413 76.0996 10.816C76.409 10.8907 76.7503 10.9547 77.1236 11.008C77.5076 11.0507 77.8863 11.12 78.2596 11.216C78.633 11.312 78.9743 11.4453 79.2836 11.616C79.6036 11.776 79.8596 12.0053 80.0516 12.304C80.2436 12.6027 80.3396 12.992 80.3396 13.472C80.3396 14.0053 80.1796 14.4693 79.8596 14.864C79.5503 15.2587 79.1076 15.568 78.5316 15.792C77.9556 16.0053 77.2676 16.112 76.4676 16.112ZM82.062 16V7.456H84.062V16H82.062ZM83.07 6.048C82.6967 6.048 82.3873 5.93067 82.142 5.696C81.9073 5.46133 81.79 5.17867 81.79 4.848C81.79 4.50667 81.9073 4.224 82.142 4C82.3873 3.76533 82.6967 3.648 83.07 3.648C83.4433 3.648 83.7473 3.76 83.982 3.984C84.2273 4.19733 84.35 4.46933 84.35 4.8C84.35 5.152 84.2327 5.45067 83.998 5.696C83.7633 5.93067 83.454 6.048 83.07 6.048ZM89.327 16.112C88.6123 16.112 87.9243 16.0213 87.263 15.84C86.6123 15.648 86.095 15.4187 85.711 15.152L86.479 13.632C86.863 13.8773 87.3217 14.08 87.855 14.24C88.3883 14.4 88.9217 14.48 89.455 14.48C90.0843 14.48 90.5377 14.3947 90.815 14.224C91.103 14.0533 91.247 13.824 91.247 13.536C91.247 13.3013 91.151 13.1253 90.959 13.008C90.767 12.88 90.5163 12.784 90.207 12.72C89.8977 12.656 89.551 12.5973 89.167 12.544C88.7937 12.4907 88.415 12.4213 88.031 12.336C87.6577 12.24 87.3163 12.1067 87.007 11.936C86.6977 11.7547 86.447 11.5147 86.255 11.216C86.063 10.9173 85.967 10.5227 85.967 10.032C85.967 9.488 86.1217 9.01867 86.431 8.624C86.7403 8.21867 87.1723 7.90933 87.727 7.696C88.2923 7.472 88.959 7.36 89.727 7.36C90.303 7.36 90.8843 7.424 91.471 7.552C92.0577 7.68 92.543 7.86133 92.927 8.096L92.159 9.616C91.7537 9.37067 91.343 9.20533 90.927 9.12C90.5217 9.024 90.1163 8.976 89.711 8.976C89.103 8.976 88.6497 9.06667 88.351 9.248C88.063 9.42933 87.919 9.65867 87.919 9.936C87.919 10.192 88.015 10.384 88.207 10.512C88.399 10.64 88.6497 10.7413 88.959 10.816C89.2683 10.8907 89.6097 10.9547 89.983 11.008C90.367 11.0507 90.7457 11.12 91.119 11.216C91.4923 11.312 91.8337 11.4453 92.143 11.616C92.463 11.776 92.719 12.0053 92.911 12.304C93.103 12.6027 93.199 12.992 93.199 13.472C93.199 14.0053 93.039 14.4693 92.719 14.864C92.4097 15.2587 91.967 15.568 91.391 15.792C90.815 16.0053 90.127 16.112 89.327 16.112Z" fill="#76A5C4"/>
<path d="M103.54 16.4596C103.794 16.7135 104.206 16.7135 104.46 16.4596L108.596 12.323C108.85 12.0692 108.85 11.6576 108.596 11.4038C108.342 11.15 107.931 11.15 107.677 11.4038L104 15.0808L100.323 11.4038C100.069 11.15 99.6576 11.15 99.4038 11.4038C99.15 11.6576 99.15 12.0692 99.4038 12.323L103.54 16.4596ZM103.35 6L103.35 16L104.65 16L104.65 6L103.35 6Z" fill="#76A5C4"/>
<line x1="1" y1="21.5" x2="110" y2="21.5" stroke="#76A5C4"/>
</svg>
