<svg width="139" height="27" viewBox="0 0 139 27" fill="none" xmlns="http://www.w3.org/2000/svg">
<path d="M5.816 16L0.92 4.8H3.176L7.544 14.928H6.248L10.664 4.8H12.744L7.864 16H5.816ZM17.1093 16.112C16.1599 16.112 15.3279 15.9253 14.6133 15.552C13.9093 15.168 13.3599 14.6453 12.9653 13.984C12.5813 13.3227 12.3893 12.5707 12.3893 11.728C12.3893 10.8747 12.5759 10.1227 12.9493 9.472C13.3333 8.81067 13.8559 8.29333 14.5173 7.92C15.1893 7.54667 15.9519 7.36 16.8053 7.36C17.6373 7.36 18.3786 7.54133 19.0293 7.904C19.6799 8.26667 20.1919 8.77867 20.5653 9.44C20.9386 10.1013 21.1253 10.88 21.1253 11.776C21.1253 11.8613 21.1199 11.9573 21.1093 12.064C21.1093 12.1707 21.1039 12.272 21.0933 12.368H13.9733V11.04H20.0373L19.2533 11.456C19.2639 10.9653 19.1626 10.5333 18.9493 10.16C18.7359 9.78667 18.4426 9.49333 18.0693 9.28C17.7066 9.06667 17.2853 8.96 16.8053 8.96C16.3146 8.96 15.8826 9.06667 15.5093 9.28C15.1466 9.49333 14.8586 9.792 14.6453 10.176C14.4426 10.5493 14.3413 10.992 14.3413 11.504V11.824C14.3413 12.336 14.4586 12.7893 14.6933 13.184C14.9279 13.5787 15.2586 13.8827 15.6853 14.096C16.1119 14.3093 16.6026 14.416 17.1573 14.416C17.6373 14.416 18.0693 14.3413 18.4533 14.192C18.8373 14.0427 19.1786 13.808 19.4773 13.488L20.5493 14.72C20.1653 15.168 19.6799 15.5147 19.0933 15.76C18.5173 15.9947 17.8559 16.112 17.1093 16.112ZM23.0464 16V7.456H24.9504V9.808L24.7264 9.12C24.9824 8.544 25.3824 8.10667 25.9264 7.808C26.481 7.50933 27.169 7.36 27.9904 7.36V9.264C27.905 9.24267 27.825 9.232 27.7504 9.232C27.6757 9.22133 27.601 9.216 27.5264 9.216C26.769 9.216 26.1664 9.44 25.7184 9.888C25.2704 10.3253 25.0464 10.9813 25.0464 11.856V16H23.0464ZM34.187 16V7.456H36.091V9.808L35.867 9.12C36.123 8.544 36.523 8.10667 37.067 7.808C37.6217 7.50933 38.3097 7.36 39.131 7.36V9.264C39.0457 9.24267 38.9657 9.232 38.891 9.232C38.8163 9.22133 38.7417 9.216 38.667 9.216C37.9097 9.216 37.307 9.44 36.859 9.888C36.411 10.3253 36.187 10.9813 36.187 11.856V16H34.187ZM44.7655 16.112C43.8162 16.112 42.9842 15.9253 42.2695 15.552C41.5655 15.168 41.0162 14.6453 40.6215 13.984C40.2375 13.3227 40.0455 12.5707 40.0455 11.728C40.0455 10.8747 40.2322 10.1227 40.6055 9.472C40.9895 8.81067 41.5122 8.29333 42.1735 7.92C42.8455 7.54667 43.6082 7.36 44.4615 7.36C45.2935 7.36 46.0348 7.54133 46.6855 7.904C47.3362 8.26667 47.8482 8.77867 48.2215 9.44C48.5948 10.1013 48.7815 10.88 48.7815 11.776C48.7815 11.8613 48.7762 11.9573 48.7655 12.064C48.7655 12.1707 48.7602 12.272 48.7495 12.368H41.6295V11.04H47.6935L46.9095 11.456C46.9202 10.9653 46.8188 10.5333 46.6055 10.16C46.3922 9.78667 46.0988 9.49333 45.7255 9.28C45.3628 9.06667 44.9415 8.96 44.4615 8.96C43.9708 8.96 43.5388 9.06667 43.1655 9.28C42.8028 9.49333 42.5148 9.792 42.3015 10.176C42.0988 10.5493 41.9975 10.992 41.9975 11.504V11.824C41.9975 12.336 42.1148 12.7893 42.3495 13.184C42.5842 13.5787 42.9148 13.8827 43.3415 14.096C43.7682 14.3093 44.2588 14.416 44.8135 14.416C45.2935 14.416 45.7255 14.3413 46.1095 14.192C46.4935 14.0427 46.8348 13.808 47.1335 13.488L48.2055 14.72C47.8215 15.168 47.3362 15.5147 46.7495 15.76C46.1735 15.9947 45.5122 16.112 44.7655 16.112ZM50.9746 16V6.976C50.9746 6.08 51.236 5.36533 51.7586 4.832C52.292 4.288 53.0493 4.016 54.0306 4.016C54.3826 4.016 54.7133 4.05333 55.0226 4.128C55.3426 4.20267 55.6093 4.32 55.8226 4.48L55.2786 5.984C55.1293 5.86667 54.9586 5.78133 54.7666 5.728C54.5746 5.664 54.3773 5.632 54.1746 5.632C53.7586 5.632 53.444 5.74933 53.2306 5.984C53.0173 6.208 52.9106 6.54933 52.9106 7.008V7.968L52.9746 8.864V16H50.9746ZM49.5666 9.12V7.52H55.2626V9.12H49.5666ZM60.4999 16.112C59.5505 16.112 58.7185 15.9253 58.0039 15.552C57.2999 15.168 56.7505 14.6453 56.3559 13.984C55.9719 13.3227 55.7799 12.5707 55.7799 11.728C55.7799 10.8747 55.9665 10.1227 56.3399 9.472C56.7239 8.81067 57.2465 8.29333 57.9079 7.92C58.5799 7.54667 59.3425 7.36 60.1959 7.36C61.0279 7.36 61.7692 7.54133 62.4199 7.904C63.0705 8.26667 63.5825 8.77867 63.9559 9.44C64.3292 10.1013 64.5159 10.88 64.5159 11.776C64.5159 11.8613 64.5105 11.9573 64.4999 12.064C64.4999 12.1707 64.4945 12.272 64.4839 12.368H57.3639V11.04H63.4279L62.6439 11.456C62.6545 10.9653 62.5532 10.5333 62.3399 10.16C62.1265 9.78667 61.8332 9.49333 61.4599 9.28C61.0972 9.06667 60.6759 8.96 60.1959 8.96C59.7052 8.96 59.2732 9.06667 58.8999 9.28C58.5372 9.49333 58.2492 9.792 58.0359 10.176C57.8332 10.5493 57.7319 10.992 57.7319 11.504V11.824C57.7319 12.336 57.8492 12.7893 58.0839 13.184C58.3185 13.5787 58.6492 13.8827 59.0759 14.096C59.5025 14.3093 59.9932 14.416 60.5479 14.416C61.0279 14.416 61.4599 14.3413 61.8439 14.192C62.2279 14.0427 62.5692 13.808 62.8679 13.488L63.9399 14.72C63.5559 15.168 63.0705 15.5147 62.4839 15.76C61.9079 15.9947 61.2465 16.112 60.4999 16.112ZM66.437 16V7.456H68.341V9.808L68.117 9.12C68.373 8.544 68.773 8.10667 69.317 7.808C69.8717 7.50933 70.5597 7.36 71.381 7.36V9.264C71.2957 9.24267 71.2157 9.232 71.141 9.232C71.0663 9.22133 70.9917 9.216 70.917 9.216C70.1597 9.216 69.557 9.44 69.109 9.888C68.661 10.3253 68.437 10.9813 68.437 11.856V16H66.437ZM77.0155 16.112C76.0662 16.112 75.2342 15.9253 74.5195 15.552C73.8155 15.168 73.2662 14.6453 72.8715 13.984C72.4875 13.3227 72.2955 12.5707 72.2955 11.728C72.2955 10.8747 72.4822 10.1227 72.8555 9.472C73.2395 8.81067 73.7622 8.29333 74.4235 7.92C75.0955 7.54667 75.8582 7.36 76.7115 7.36C77.5435 7.36 78.2848 7.54133 78.9355 7.904C79.5862 8.26667 80.0982 8.77867 80.4715 9.44C80.8448 10.1013 81.0315 10.88 81.0315 11.776C81.0315 11.8613 81.0262 11.9573 81.0155 12.064C81.0155 12.1707 81.0102 12.272 80.9995 12.368H73.8795V11.04H79.9435L79.1595 11.456C79.1702 10.9653 79.0688 10.5333 78.8555 10.16C78.6422 9.78667 78.3488 9.49333 77.9755 9.28C77.6128 9.06667 77.1915 8.96 76.7115 8.96C76.2208 8.96 75.7888 9.06667 75.4155 9.28C75.0528 9.49333 74.7648 9.792 74.5515 10.176C74.3488 10.5493 74.2475 10.992 74.2475 11.504V11.824C74.2475 12.336 74.3648 12.7893 74.5995 13.184C74.8342 13.5787 75.1648 13.8827 75.5915 14.096C76.0182 14.3093 76.5088 14.416 77.0635 14.416C77.5435 14.416 77.9755 14.3413 78.3595 14.192C78.7435 14.0427 79.0848 13.808 79.3835 13.488L80.4555 14.72C80.0715 15.168 79.5862 15.5147 78.9995 15.76C78.4235 15.9947 77.7622 16.112 77.0155 16.112ZM87.8006 7.36C88.4833 7.36 89.0913 7.49333 89.6246 7.76C90.1686 8.02667 90.5953 8.43733 90.9046 8.992C91.214 9.536 91.3686 10.24 91.3686 11.104V16H89.3686V11.36C89.3686 10.6027 89.1873 10.0373 88.8246 9.664C88.4726 9.29067 87.9766 9.104 87.3366 9.104C86.8673 9.104 86.4513 9.2 86.0886 9.392C85.726 9.584 85.4433 9.872 85.2406 10.256C85.0486 10.6293 84.9526 11.104 84.9526 11.68V16H82.9526V7.456H84.8566V9.76L84.5206 9.056C84.8193 8.512 85.2513 8.096 85.8166 7.808C86.3926 7.50933 87.054 7.36 87.8006 7.36ZM97.8414 16.112C96.9454 16.112 96.1454 15.9253 95.4414 15.552C94.748 15.168 94.204 14.6453 93.8094 13.984C93.4147 13.3227 93.2174 12.5707 93.2174 11.728C93.2174 10.8747 93.4147 10.1227 93.8094 9.472C94.204 8.81067 94.748 8.29333 95.4414 7.92C96.1454 7.54667 96.9454 7.36 97.8414 7.36C98.6734 7.36 99.404 7.53067 100.033 7.872C100.673 8.20267 101.159 8.69333 101.489 9.344L99.9534 10.24C99.6974 9.83467 99.3827 9.536 99.0094 9.344C98.6467 9.152 98.252 9.056 97.8254 9.056C97.3347 9.056 96.892 9.16267 96.4974 9.376C96.1027 9.58933 95.7934 9.89867 95.5694 10.304C95.3454 10.6987 95.2334 11.1733 95.2334 11.728C95.2334 12.2827 95.3454 12.7627 95.5694 13.168C95.7934 13.5627 96.1027 13.8667 96.4974 14.08C96.892 14.2933 97.3347 14.4 97.8254 14.4C98.252 14.4 98.6467 14.304 99.0094 14.112C99.3827 13.92 99.6974 13.6213 99.9534 13.216L101.489 14.112C101.159 14.752 100.673 15.248 100.033 15.6C99.404 15.9413 98.6734 16.112 97.8414 16.112ZM103.14 16V7.456H105.14V16H103.14ZM104.148 6.048C103.775 6.048 103.465 5.93067 103.22 5.696C102.985 5.46133 102.868 5.17867 102.868 4.848C102.868 4.50667 102.985 4.224 103.22 4C103.465 3.76533 103.775 3.648 104.148 3.648C104.521 3.648 104.825 3.76 105.06 3.984C105.305 4.19733 105.428 4.46933 105.428 4.8C105.428 5.152 105.311 5.45067 105.076 5.696C104.841 5.93067 104.532 6.048 104.148 6.048ZM113.029 16V14.272L112.917 13.904V10.88C112.917 10.2933 112.741 9.84 112.389 9.52C112.037 9.18933 111.504 9.024 110.789 9.024C110.309 9.024 109.834 9.09867 109.365 9.248C108.906 9.39733 108.517 9.60533 108.197 9.872L107.413 8.416C107.872 8.064 108.416 7.80267 109.045 7.632C109.685 7.45067 110.346 7.36 111.029 7.36C112.266 7.36 113.221 7.65867 113.893 8.256C114.576 8.84267 114.917 9.75467 114.917 10.992V16H113.029ZM110.341 16.112C109.701 16.112 109.141 16.0053 108.661 15.792C108.181 15.568 107.808 15.264 107.541 14.88C107.285 14.4853 107.157 14.0427 107.157 13.552C107.157 13.072 107.269 12.64 107.493 12.256C107.728 11.872 108.106 11.568 108.629 11.344C109.152 11.12 109.845 11.008 110.709 11.008H113.189V12.336H110.853C110.17 12.336 109.712 12.448 109.477 12.672C109.242 12.8853 109.125 13.152 109.125 13.472C109.125 13.8347 109.269 14.1227 109.557 14.336C109.845 14.5493 110.245 14.656 110.757 14.656C111.248 14.656 111.685 14.544 112.069 14.32C112.464 14.096 112.746 13.7653 112.917 13.328L113.253 14.528C113.061 15.0293 112.714 15.4187 112.213 15.696C111.722 15.9733 111.098 16.112 110.341 16.112ZM120.124 16.112C119.409 16.112 118.721 16.0213 118.06 15.84C117.409 15.648 116.892 15.4187 116.508 15.152L117.276 13.632C117.66 13.8773 118.119 14.08 118.652 14.24C119.185 14.4 119.719 14.48 120.252 14.48C120.881 14.48 121.335 14.3947 121.612 14.224C121.9 14.0533 122.044 13.824 122.044 13.536C122.044 13.3013 121.948 13.1253 121.756 13.008C121.564 12.88 121.313 12.784 121.004 12.72C120.695 12.656 120.348 12.5973 119.964 12.544C119.591 12.4907 119.212 12.4213 118.828 12.336C118.455 12.24 118.113 12.1067 117.804 11.936C117.495 11.7547 117.244 11.5147 117.052 11.216C116.86 10.9173 116.764 10.5227 116.764 10.032C116.764 9.488 116.919 9.01867 117.228 8.624C117.537 8.21867 117.969 7.90933 118.524 7.696C119.089 7.472 119.756 7.36 120.524 7.36C121.1 7.36 121.681 7.424 122.268 7.552C122.855 7.68 123.34 7.86133 123.724 8.096L122.956 9.616C122.551 9.37067 122.14 9.20533 121.724 9.12C121.319 9.024 120.913 8.976 120.508 8.976C119.9 8.976 119.447 9.06667 119.148 9.248C118.86 9.42933 118.716 9.65867 118.716 9.936C118.716 10.192 118.812 10.384 119.004 10.512C119.196 10.64 119.447 10.7413 119.756 10.816C120.065 10.8907 120.407 10.9547 120.78 11.008C121.164 11.0507 121.543 11.12 121.916 11.216C122.289 11.312 122.631 11.4453 122.94 11.616C123.26 11.776 123.516 12.0053 123.708 12.304C123.9 12.6027 123.996 12.992 123.996 13.472C123.996 14.0053 123.836 14.4693 123.516 14.864C123.207 15.2587 122.764 15.568 122.188 15.792C121.612 16.0053 120.924 16.112 120.124 16.112Z" fill="#76A5C4"/>
<path d="M132.54 16.4596C132.794 16.7135 133.206 16.7135 133.46 16.4596L137.596 12.323C137.85 12.0692 137.85 11.6576 137.596 11.4038C137.342 11.15 136.931 11.15 136.677 11.4038L133 15.0808L129.323 11.4038C129.069 11.15 128.658 11.15 128.404 11.4038C128.15 11.6576 128.15 12.0692 128.404 12.323L132.54 16.4596ZM132.35 6L132.35 16L133.65 16L133.65 6L132.35 6Z" fill="#76A5C4"/>
<line x1="1" y1="21.5" x2="139" y2="21.5" stroke="#76A5C4"/>
</svg>
