<svg width="280" height="280" viewBox="0 0 280 280" fill="none" xmlns="http://www.w3.org/2000/svg">
<path d="M269.822 137.658C268.289 138.79 268.081 141.104 269.53 142.46C273.76 146.419 276.486 152.964 277.388 160.952C278.286 168.904 277.346 178.066 274.478 186.977C268.735 204.822 255.424 221.256 234.279 225.217C232.463 225.557 231.423 227.411 231.911 229.092C234.347 237.484 231.737 245.601 225.737 252.876C219.713 260.181 210.377 266.477 199.846 270.95C189.326 275.418 177.772 277.998 167.426 278C157.036 278.002 148.172 275.411 142.643 269.899C141.444 268.704 139.501 268.701 138.298 269.89C133.769 274.366 125.921 276.763 116.29 276.958C106.731 277.152 95.7605 275.163 85.3947 271.267C64.4677 263.401 47.0184 248.23 47.2793 228.685C47.3043 226.81 45.636 225.361 43.8063 225.599L44.0641 227.582L43.8063 225.599C35.7382 226.648 28.1803 223.581 21.7564 217.804C15.3169 212.012 10.117 203.569 6.92325 194.194C0.483288 175.289 2.46383 153.661 17.2293 142.712C19.0541 141.359 18.8064 138.556 16.8561 137.495C9.50554 133.498 5.02508 126.117 3.09633 117.121C1.16607 108.119 1.84277 97.6743 4.66969 87.9633C7.49886 78.2446 12.4282 69.4408 18.8211 63.6185C25.1677 57.8382 32.8986 55.0248 41.6231 56.9944C43.1039 57.3287 44.307 56.5199 44.9159 55.6978C45.5243 54.8764 45.9372 53.5125 45.236 52.2042C41.6925 45.5936 43.3209 37.731 48.9372 29.8976C54.5374 22.0864 63.8707 14.7015 74.7373 9.50804C96.6332 -0.956605 123.388 -2.02407 137.917 18.0802C139.183 19.8309 141.847 19.7313 142.999 17.9355C149.52 7.77044 159.062 3.06073 169.64 2.16133C180.289 1.25587 192.002 4.22454 202.554 9.52191C213.105 14.8188 222.313 22.3523 228.001 30.3567C233.713 38.3961 235.644 46.5307 232.557 53.3831C231.637 55.4267 233.171 57.9278 235.544 57.8224C253.565 57.0227 267.228 72.8251 273.825 91.7034C277.09 101.045 278.504 110.869 277.84 119.24C277.17 127.679 274.432 134.254 269.822 137.658Z" fill="#AFDDF3" fill-opacity="0.75" stroke="#AFDDF3" stroke-width="4"/>
</svg>
