<svg width="280" height="280" viewBox="0 0 280 280" fill="none" xmlns="http://www.w3.org/2000/svg">
<path d="M8.67925 143.318L6.92917 142.35L8.67925 143.318C9.47335 141.882 8.9599 140.172 7.73472 139.311L6.58481 140.947L7.73471 139.311C2.74856 135.807 0.926387 128.043 2.60424 119.241C4.2593 110.558 9.2089 101.717 16.5309 96.7871C17.8213 95.9183 18.2461 94.2215 17.5412 92.8504C13.906 85.7796 14.0303 77.1193 17.6828 70.1503C21.2979 63.2525 28.406 57.9429 38.9821 57.5647C40.8774 57.4969 42.2455 55.7248 41.8767 53.8917C39.5642 42.3969 45.3489 32.5858 54.6858 26.8179C64.0553 21.03 76.7574 19.503 87.6952 24.576C89.3332 25.3357 91.2717 24.5029 91.8625 22.8103C99.6657 0.452323 124.693 -3.77402 136.829 11.4371C138.038 12.9532 140.348 12.9734 141.59 11.4978C148.937 2.76687 161.247 0.437278 172.155 2.94974C183.142 5.48024 191.738 12.6473 192.508 21.8844C192.677 23.9069 194.791 25.312 196.76 24.5073C220.608 14.762 241.192 35.3737 236.649 53.7543C236.185 55.6296 237.567 57.4934 239.516 57.5674C250.039 57.967 257.119 63.2564 260.73 70.1273C264.377 77.0685 264.521 85.6936 260.932 92.7549C260.168 94.2588 260.775 96.1076 262.277 96.8686C272.008 101.799 276.777 109.409 277.791 117.196C278.813 125.044 276.043 133.25 270.326 139.32L271.782 140.692L270.326 139.321C269.133 140.587 269.262 142.552 270.486 143.685C276.752 149.488 278.069 159.521 276.001 168.772C274.979 173.345 273.161 177.543 270.885 180.697C268.586 183.882 265.98 185.792 263.437 186.252C261.612 186.582 260.189 188.58 261.007 190.578C264.247 198.5 262.645 206.888 258.285 213.516C253.905 220.174 246.898 224.816 239.686 225.372C237.571 225.535 236.281 227.721 237.011 229.625C239.899 237.16 235.675 245.506 227.177 251.572C218.764 257.578 206.848 260.747 196.07 258.028C194.435 257.616 192.813 258.616 192.376 260.183C189.7 269.789 181.519 275.338 171.487 277.02C161.429 278.706 149.857 276.407 141.162 270.614C139.774 269.689 137.982 270.081 137.032 271.303C132.229 277.484 121.876 279.359 111.045 277.052C100.301 274.763 90.1893 268.561 86.192 260.049C85.3783 258.317 83.234 257.784 81.6993 258.764C74.979 263.057 65.6117 260.763 57.3037 254.282C49.0703 247.858 42.756 237.932 42.2327 228.666C42.122 226.707 40.2656 225.438 38.4784 225.807C31.6921 227.208 24.7368 222.381 20.1884 214.556C15.674 206.788 14.1783 197.075 17.516 190.192L15.7164 189.319L17.516 190.192C18.2358 188.707 17.6585 186.88 16.1601 186.108C8.98882 182.414 4.81487 176.018 3.55486 168.404C2.28784 160.747 3.97463 151.822 8.67925 143.318Z" fill="#AFDDF3" fill-opacity="0.75" stroke="#AFDDF3" stroke-width="4"/>
</svg>
